<?xml version="1.0" encoding="utf-8" standalone="no"?>
<!DOCTYPE svg PUBLIC "-//W3C//DTD SVG 1.1//EN"
  "http://www.w3.org/Graphics/SVG/1.1/DTD/svg11.dtd">
<svg xmlns:xlink="http://www.w3.org/1999/xlink" width="460.8pt" height="345.6pt" viewBox="0 0 460.8 345.6" xmlns="http://www.w3.org/2000/svg" version="1.1">
 <metadata>
  <rdf:RDF xmlns:dc="http://purl.org/dc/elements/1.1/" xmlns:cc="http://creativecommons.org/ns#" xmlns:rdf="http://www.w3.org/1999/02/22-rdf-syntax-ns#">
   <cc:Work>
    <dc:type rdf:resource="http://purl.org/dc/dcmitype/StillImage"/>
    <dc:date>2024-07-14T12:12:52.729589</dc:date>
    <dc:format>image/svg+xml</dc:format>
    <dc:creator>
     <cc:Agent>
      <dc:title>Matplotlib v3.9.1, https://matplotlib.org/</dc:title>
     </cc:Agent>
    </dc:creator>
   </cc:Work>
  </rdf:RDF>
 </metadata>
 <defs>
  <style type="text/css">*{stroke-linejoin: round; stroke-linecap: butt}</style>
 </defs>
 <g id="figure_1">
  <g id="patch_1">
   <path d="M 0 345.6 
L 460.8 345.6 
L 460.8 0 
L 0 0 
z
" style="fill: #ffffff"/>
  </g>
  <g id="axes_1">
   <g id="patch_2">
    <path d="M 57.6 307.584 
L 414.72 307.584 
L 414.72 41.472 
L 57.6 41.472 
z
" style="fill: #ffffff"/>
   </g>
   <g id="matplotlib.axis_1">
    <g id="xtick_1">
     <g id="line2d_1">
      <defs>
       <path id="mf7b0985eec" d="M 0 0 
L 0 3.5 
" style="stroke: #000000; stroke-width: 0.8"/>
      </defs>
      <g>
       <use xlink:href="#mf7b0985eec" x="73.832727" y="307.584" style="stroke: #000000; stroke-width: 0.8"/>
      </g>
     </g>
     <g id="text_1">
      <!-- −100 -->
      <g transform="translate(60.099134 322.182437) scale(0.1 -0.1)">
       <defs>
        <path id="DejaVuSans-2212" d="M 678 2272 
L 4684 2272 
L 4684 1741 
L 678 1741 
L 678 2272 
z
" transform="scale(0.015625)"/>
        <path id="DejaVuSans-31" d="M 794 531 
L 1825 531 
L 1825 4091 
L 703 3866 
L 703 4441 
L 1819 4666 
L 2450 4666 
L 2450 531 
L 3481 531 
L 3481 0 
L 794 0 
L 794 531 
z
" transform="scale(0.015625)"/>
        <path id="DejaVuSans-30" d="M 2034 4250 
Q 1547 4250 1301 3770 
Q 1056 3291 1056 2328 
Q 1056 1369 1301 889 
Q 1547 409 2034 409 
Q 2525 409 2770 889 
Q 3016 1369 3016 2328 
Q 3016 3291 2770 3770 
Q 2525 4250 2034 4250 
z
M 2034 4750 
Q 2819 4750 3233 4129 
Q 3647 3509 3647 2328 
Q 3647 1150 3233 529 
Q 2819 -91 2034 -91 
Q 1250 -91 836 529 
Q 422 1150 422 2328 
Q 422 3509 836 4129 
Q 1250 4750 2034 4750 
z
" transform="scale(0.015625)"/>
       </defs>
       <use xlink:href="#DejaVuSans-2212"/>
       <use xlink:href="#DejaVuSans-31" x="83.789062"/>
       <use xlink:href="#DejaVuSans-30" x="147.412109"/>
       <use xlink:href="#DejaVuSans-30" x="211.035156"/>
      </g>
     </g>
    </g>
    <g id="xtick_2">
     <g id="line2d_2">
      <g>
       <use xlink:href="#mf7b0985eec" x="114.434847" y="307.584" style="stroke: #000000; stroke-width: 0.8"/>
      </g>
     </g>
     <g id="text_2">
      <!-- −75 -->
      <g transform="translate(103.882503 322.182437) scale(0.1 -0.1)">
       <defs>
        <path id="DejaVuSans-37" d="M 525 4666 
L 3525 4666 
L 3525 4397 
L 1831 0 
L 1172 0 
L 2766 4134 
L 525 4134 
L 525 4666 
z
" transform="scale(0.015625)"/>
        <path id="DejaVuSans-35" d="M 691 4666 
L 3169 4666 
L 3169 4134 
L 1269 4134 
L 1269 2991 
Q 1406 3038 1543 3061 
Q 1681 3084 1819 3084 
Q 2600 3084 3056 2656 
Q 3513 2228 3513 1497 
Q 3513 744 3044 326 
Q 2575 -91 1722 -91 
Q 1428 -91 1123 -41 
Q 819 9 494 109 
L 494 744 
Q 775 591 1075 516 
Q 1375 441 1709 441 
Q 2250 441 2565 725 
Q 2881 1009 2881 1497 
Q 2881 1984 2565 2268 
Q 2250 2553 1709 2553 
Q 1456 2553 1204 2497 
Q 953 2441 691 2322 
L 691 4666 
z
" transform="scale(0.015625)"/>
       </defs>
       <use xlink:href="#DejaVuSans-2212"/>
       <use xlink:href="#DejaVuSans-37" x="83.789062"/>
       <use xlink:href="#DejaVuSans-35" x="147.412109"/>
      </g>
     </g>
    </g>
    <g id="xtick_3">
     <g id="line2d_3">
      <g>
       <use xlink:href="#mf7b0985eec" x="155.036966" y="307.584" style="stroke: #000000; stroke-width: 0.8"/>
      </g>
     </g>
     <g id="text_3">
      <!-- −50 -->
      <g transform="translate(144.484622 322.182437) scale(0.1 -0.1)">
       <use xlink:href="#DejaVuSans-2212"/>
       <use xlink:href="#DejaVuSans-35" x="83.789062"/>
       <use xlink:href="#DejaVuSans-30" x="147.412109"/>
      </g>
     </g>
    </g>
    <g id="xtick_4">
     <g id="line2d_4">
      <g>
       <use xlink:href="#mf7b0985eec" x="195.639085" y="307.584" style="stroke: #000000; stroke-width: 0.8"/>
      </g>
     </g>
     <g id="text_4">
      <!-- −25 -->
      <g transform="translate(185.086741 322.182437) scale(0.1 -0.1)">
       <defs>
        <path id="DejaVuSans-32" d="M 1228 531 
L 3431 531 
L 3431 0 
L 469 0 
L 469 531 
Q 828 903 1448 1529 
Q 2069 2156 2228 2338 
Q 2531 2678 2651 2914 
Q 2772 3150 2772 3378 
Q 2772 3750 2511 3984 
Q 2250 4219 1831 4219 
Q 1534 4219 1204 4116 
Q 875 4013 500 3803 
L 500 4441 
Q 881 4594 1212 4672 
Q 1544 4750 1819 4750 
Q 2544 4750 2975 4387 
Q 3406 4025 3406 3419 
Q 3406 3131 3298 2873 
Q 3191 2616 2906 2266 
Q 2828 2175 2409 1742 
Q 1991 1309 1228 531 
z
" transform="scale(0.015625)"/>
       </defs>
       <use xlink:href="#DejaVuSans-2212"/>
       <use xlink:href="#DejaVuSans-32" x="83.789062"/>
       <use xlink:href="#DejaVuSans-35" x="147.412109"/>
      </g>
     </g>
    </g>
    <g id="xtick_5">
     <g id="line2d_5">
      <g>
       <use xlink:href="#mf7b0985eec" x="236.241204" y="307.584" style="stroke: #000000; stroke-width: 0.8"/>
      </g>
     </g>
     <g id="text_5">
      <!-- 0 -->
      <g transform="translate(233.059954 322.182437) scale(0.1 -0.1)">
       <use xlink:href="#DejaVuSans-30"/>
      </g>
     </g>
    </g>
    <g id="xtick_6">
     <g id="line2d_6">
      <g>
       <use xlink:href="#mf7b0985eec" x="276.843323" y="307.584" style="stroke: #000000; stroke-width: 0.8"/>
      </g>
     </g>
     <g id="text_6">
      <!-- 25 -->
      <g transform="translate(270.480823 322.182437) scale(0.1 -0.1)">
       <use xlink:href="#DejaVuSans-32"/>
       <use xlink:href="#DejaVuSans-35" x="63.623047"/>
      </g>
     </g>
    </g>
    <g id="xtick_7">
     <g id="line2d_7">
      <g>
       <use xlink:href="#mf7b0985eec" x="317.445443" y="307.584" style="stroke: #000000; stroke-width: 0.8"/>
      </g>
     </g>
     <g id="text_7">
      <!-- 50 -->
      <g transform="translate(311.082943 322.182437) scale(0.1 -0.1)">
       <use xlink:href="#DejaVuSans-35"/>
       <use xlink:href="#DejaVuSans-30" x="63.623047"/>
      </g>
     </g>
    </g>
    <g id="xtick_8">
     <g id="line2d_8">
      <g>
       <use xlink:href="#mf7b0985eec" x="358.047562" y="307.584" style="stroke: #000000; stroke-width: 0.8"/>
      </g>
     </g>
     <g id="text_8">
      <!-- 75 -->
      <g transform="translate(351.685062 322.182437) scale(0.1 -0.1)">
       <use xlink:href="#DejaVuSans-37"/>
       <use xlink:href="#DejaVuSans-35" x="63.623047"/>
      </g>
     </g>
    </g>
    <g id="xtick_9">
     <g id="line2d_9">
      <g>
       <use xlink:href="#mf7b0985eec" x="398.649681" y="307.584" style="stroke: #000000; stroke-width: 0.8"/>
      </g>
     </g>
     <g id="text_9">
      <!-- 100 -->
      <g transform="translate(389.105931 322.182437) scale(0.1 -0.1)">
       <use xlink:href="#DejaVuSans-31"/>
       <use xlink:href="#DejaVuSans-30" x="63.623047"/>
       <use xlink:href="#DejaVuSans-30" x="127.246094"/>
      </g>
     </g>
    </g>
   </g>
   <g id="matplotlib.axis_2">
    <g id="ytick_1">
     <g id="line2d_10">
      <defs>
       <path id="m3f5b1aed74" d="M 0 0 
L -3.5 0 
" style="stroke: #000000; stroke-width: 0.8"/>
      </defs>
      <g>
       <use xlink:href="#m3f5b1aed74" x="57.6" y="292.063813" style="stroke: #000000; stroke-width: 0.8"/>
      </g>
     </g>
     <g id="text_10">
      <!-- −0.2 -->
      <g transform="translate(26.317187 295.863032) scale(0.1 -0.1)">
       <defs>
        <path id="DejaVuSans-2e" d="M 684 794 
L 1344 794 
L 1344 0 
L 684 0 
L 684 794 
z
" transform="scale(0.015625)"/>
       </defs>
       <use xlink:href="#DejaVuSans-2212"/>
       <use xlink:href="#DejaVuSans-30" x="83.789062"/>
       <use xlink:href="#DejaVuSans-2e" x="147.412109"/>
       <use xlink:href="#DejaVuSans-32" x="179.199219"/>
      </g>
     </g>
    </g>
    <g id="ytick_2">
     <g id="line2d_11">
      <g>
       <use xlink:href="#m3f5b1aed74" x="57.6" y="252.314511" style="stroke: #000000; stroke-width: 0.8"/>
      </g>
     </g>
     <g id="text_11">
      <!-- 0.0 -->
      <g transform="translate(34.696875 256.11373) scale(0.1 -0.1)">
       <use xlink:href="#DejaVuSans-30"/>
       <use xlink:href="#DejaVuSans-2e" x="63.623047"/>
       <use xlink:href="#DejaVuSans-30" x="95.410156"/>
      </g>
     </g>
    </g>
    <g id="ytick_3">
     <g id="line2d_12">
      <g>
       <use xlink:href="#m3f5b1aed74" x="57.6" y="212.565209" style="stroke: #000000; stroke-width: 0.8"/>
      </g>
     </g>
     <g id="text_12">
      <!-- 0.2 -->
      <g transform="translate(34.696875 216.364428) scale(0.1 -0.1)">
       <use xlink:href="#DejaVuSans-30"/>
       <use xlink:href="#DejaVuSans-2e" x="63.623047"/>
       <use xlink:href="#DejaVuSans-32" x="95.410156"/>
      </g>
     </g>
    </g>
    <g id="ytick_4">
     <g id="line2d_13">
      <g>
       <use xlink:href="#m3f5b1aed74" x="57.6" y="172.815907" style="stroke: #000000; stroke-width: 0.8"/>
      </g>
     </g>
     <g id="text_13">
      <!-- 0.4 -->
      <g transform="translate(34.696875 176.615125) scale(0.1 -0.1)">
       <defs>
        <path id="DejaVuSans-34" d="M 2419 4116 
L 825 1625 
L 2419 1625 
L 2419 4116 
z
M 2253 4666 
L 3047 4666 
L 3047 1625 
L 3713 1625 
L 3713 1100 
L 3047 1100 
L 3047 0 
L 2419 0 
L 2419 1100 
L 313 1100 
L 313 1709 
L 2253 4666 
z
" transform="scale(0.015625)"/>
       </defs>
       <use xlink:href="#DejaVuSans-30"/>
       <use xlink:href="#DejaVuSans-2e" x="63.623047"/>
       <use xlink:href="#DejaVuSans-34" x="95.410156"/>
      </g>
     </g>
    </g>
    <g id="ytick_5">
     <g id="line2d_14">
      <g>
       <use xlink:href="#m3f5b1aed74" x="57.6" y="133.066604" style="stroke: #000000; stroke-width: 0.8"/>
      </g>
     </g>
     <g id="text_14">
      <!-- 0.6 -->
      <g transform="translate(34.696875 136.865823) scale(0.1 -0.1)">
       <defs>
        <path id="DejaVuSans-36" d="M 2113 2584 
Q 1688 2584 1439 2293 
Q 1191 2003 1191 1497 
Q 1191 994 1439 701 
Q 1688 409 2113 409 
Q 2538 409 2786 701 
Q 3034 994 3034 1497 
Q 3034 2003 2786 2293 
Q 2538 2584 2113 2584 
z
M 3366 4563 
L 3366 3988 
Q 3128 4100 2886 4159 
Q 2644 4219 2406 4219 
Q 1781 4219 1451 3797 
Q 1122 3375 1075 2522 
Q 1259 2794 1537 2939 
Q 1816 3084 2150 3084 
Q 2853 3084 3261 2657 
Q 3669 2231 3669 1497 
Q 3669 778 3244 343 
Q 2819 -91 2113 -91 
Q 1303 -91 875 529 
Q 447 1150 447 2328 
Q 447 3434 972 4092 
Q 1497 4750 2381 4750 
Q 2619 4750 2861 4703 
Q 3103 4656 3366 4563 
z
" transform="scale(0.015625)"/>
       </defs>
       <use xlink:href="#DejaVuSans-30"/>
       <use xlink:href="#DejaVuSans-2e" x="63.623047"/>
       <use xlink:href="#DejaVuSans-36" x="95.410156"/>
      </g>
     </g>
    </g>
    <g id="ytick_6">
     <g id="line2d_15">
      <g>
       <use xlink:href="#m3f5b1aed74" x="57.6" y="93.317302" style="stroke: #000000; stroke-width: 0.8"/>
      </g>
     </g>
     <g id="text_15">
      <!-- 0.8 -->
      <g transform="translate(34.696875 97.116521) scale(0.1 -0.1)">
       <defs>
        <path id="DejaVuSans-38" d="M 2034 2216 
Q 1584 2216 1326 1975 
Q 1069 1734 1069 1313 
Q 1069 891 1326 650 
Q 1584 409 2034 409 
Q 2484 409 2743 651 
Q 3003 894 3003 1313 
Q 3003 1734 2745 1975 
Q 2488 2216 2034 2216 
z
M 1403 2484 
Q 997 2584 770 2862 
Q 544 3141 544 3541 
Q 544 4100 942 4425 
Q 1341 4750 2034 4750 
Q 2731 4750 3128 4425 
Q 3525 4100 3525 3541 
Q 3525 3141 3298 2862 
Q 3072 2584 2669 2484 
Q 3125 2378 3379 2068 
Q 3634 1759 3634 1313 
Q 3634 634 3220 271 
Q 2806 -91 2034 -91 
Q 1263 -91 848 271 
Q 434 634 434 1313 
Q 434 1759 690 2068 
Q 947 2378 1403 2484 
z
M 1172 3481 
Q 1172 3119 1398 2916 
Q 1625 2713 2034 2713 
Q 2441 2713 2670 2916 
Q 2900 3119 2900 3481 
Q 2900 3844 2670 4047 
Q 2441 4250 2034 4250 
Q 1625 4250 1398 4047 
Q 1172 3844 1172 3481 
z
" transform="scale(0.015625)"/>
       </defs>
       <use xlink:href="#DejaVuSans-30"/>
       <use xlink:href="#DejaVuSans-2e" x="63.623047"/>
       <use xlink:href="#DejaVuSans-38" x="95.410156"/>
      </g>
     </g>
    </g>
    <g id="ytick_7">
     <g id="line2d_16">
      <g>
       <use xlink:href="#m3f5b1aed74" x="57.6" y="53.568" style="stroke: #000000; stroke-width: 0.8"/>
      </g>
     </g>
     <g id="text_16">
      <!-- 1.0 -->
      <g transform="translate(34.696875 57.367219) scale(0.1 -0.1)">
       <use xlink:href="#DejaVuSans-31"/>
       <use xlink:href="#DejaVuSans-2e" x="63.623047"/>
       <use xlink:href="#DejaVuSans-30" x="95.410156"/>
      </g>
     </g>
    </g>
   </g>
   <g id="line2d_17">
    <path d="M 236.241204 307.584 
L 236.241204 41.472 
" clip-path="url(#pa6efd0f181)" style="fill: none; stroke: #ff0000; stroke-width: 1.5; stroke-linecap: square"/>
   </g>
   <g id="line2d_18">
    <path d="M 57.6 252.314511 
L 414.72 252.314511 
" clip-path="url(#pa6efd0f181)" style="fill: none; stroke: #ff0000; stroke-width: 1.5; stroke-linecap: square"/>
   </g>
   <g id="line2d_19">
    <path d="M 73.832727 253.320895 
L 74.64477 254.027916 
L 75.294404 254.300451 
L 75.781629 254.300368 
L 76.268854 254.122353 
L 76.918488 253.636063 
L 77.892939 252.539558 
L 79.354615 250.853927 
L 80.004249 250.397009 
L 80.653883 250.240271 
L 81.141109 250.338112 
L 81.790743 250.741375 
L 82.602785 251.589732 
L 84.714095 254.044483 
L 85.363729 254.400889 
L 85.850955 254.454445 
L 86.33818 254.316574 
L 86.987814 253.856542 
L 87.799856 252.944246 
L 89.748758 250.580089 
L 90.398392 250.17833 
L 90.885617 250.09527 
L 91.372843 250.210557 
L 92.022477 250.654779 
L 92.834519 251.573652 
L 94.945829 254.191907 
L 95.595463 254.560887 
L 96.082689 254.60736 
L 96.569914 254.448629 
L 97.219548 253.942427 
L 98.03159 252.953185 
L 99.818084 250.579761 
L 100.467717 250.0795 
L 100.954943 249.931323 
L 101.442168 249.995727 
L 101.929394 250.26848 
L 102.579028 250.914138 
L 103.553479 252.269288 
L 104.852746 254.044712 
L 105.50238 254.598594 
L 105.989606 254.782753 
L 106.476831 254.746987 
L 106.964057 254.492846 
L 107.61369 253.853446 
L 108.588141 252.466598 
L 109.887409 250.592334 
L 110.537043 249.981533 
L 111.024268 249.758816 
L 111.511494 249.763542 
L 111.998719 249.99707 
L 112.648353 250.628495 
L 113.460396 251.787649 
L 115.08448 254.222364 
L 115.734114 254.809272 
L 116.22134 254.99683 
L 116.708565 254.945336 
L 117.195791 254.657455 
L 117.845425 253.949997 
L 118.819875 252.433691 
L 120.119143 250.406334 
L 120.768777 249.755538 
L 121.256003 249.525631 
L 121.743228 249.54395 
L 122.230453 249.810969 
L 122.880087 250.513141 
L 123.69213 251.787076 
L 125.316214 254.4322 
L 125.965848 255.058275 
L 126.453074 255.249979 
L 126.940299 255.180007 
L 127.427525 254.852296 
L 128.077159 254.064307 
L 129.051609 252.394465 
L 130.350877 250.184982 
L 131.000511 249.486393 
L 131.487737 249.247759 
L 131.974962 249.28212 
L 132.462187 249.588949 
L 133.111821 250.375457 
L 133.923864 251.786553 
L 135.547949 254.68402 
L 136.197582 255.357354 
L 136.684808 255.554247 
L 137.172033 255.462258 
L 137.659259 255.08679 
L 138.308893 254.201957 
L 139.283343 252.346934 
L 140.582611 249.916945 
L 141.232245 249.160164 
L 141.719471 248.910691 
L 142.206696 248.964262 
L 142.693922 249.319217 
L 143.343555 250.208054 
L 144.155598 251.786079 
L 145.617274 254.738874 
L 146.266908 255.58708 
L 146.754133 255.894659 
L 147.241359 255.884051 
L 147.728584 255.552715 
L 148.21581 254.92685 
L 148.865444 253.728981 
L 151.139162 249.1085 
L 151.626388 248.631686 
L 152.113613 248.48023 
L 152.43843 248.56985 
L 152.925656 248.984186 
L 153.412881 249.702634 
L 154.224923 251.399987 
L 156.011417 255.377815 
L 156.661051 256.182981 
L 157.148276 256.395491 
L 157.473093 256.334962 
L 157.960318 255.943564 
L 158.447544 255.22106 
L 159.097178 253.851367 
L 161.208488 248.881823 
L 161.695713 248.242464 
L 162.182939 247.960829 
L 162.507756 247.988036 
L 162.832573 248.188729 
L 163.319798 248.799009 
L 163.969432 250.104247 
L 165.106291 253.137127 
L 166.080742 255.557533 
L 166.730376 256.612073 
L 167.217602 256.972599 
L 167.542418 256.983833 
L 167.867235 256.80814 
L 168.354461 256.2076 
L 169.004095 254.861679 
L 169.978546 252.116284 
L 171.115405 248.969979 
L 171.765039 247.76423 
L 172.252264 247.312808 
L 172.577081 247.256831 
L 172.901898 247.402948 
L 173.389124 247.990616 
L 173.876349 248.976725 
L 174.688391 251.268131 
L 176.312476 256.174917 
L 176.96211 257.387812 
L 177.449336 257.790646 
L 177.774153 257.789861 
L 178.098969 257.569562 
L 178.586195 256.843797 
L 179.235829 255.237739 
L 180.21028 251.983339 
L 181.347139 248.274188 
L 181.996773 246.864991 
L 182.483998 246.348567 
L 182.808815 246.296286 
L 183.133632 246.48476 
L 183.458449 246.909398 
L 183.945675 247.955855 
L 184.595309 249.972676 
L 186.869027 257.871366 
L 187.356253 258.704087 
L 187.68107 258.951548 
L 188.005887 258.935962 
L 188.330704 258.654399 
L 188.817929 257.752961 
L 189.467563 255.777319 
L 190.442014 251.791107 
L 191.578873 247.261001 
L 192.228507 245.549555 
L 192.715732 244.933072 
L 193.040549 244.88285 
L 193.365366 245.130389 
L 193.690183 245.670301 
L 194.177409 246.987762 
L 194.827043 249.516017 
L 197.100761 259.396047 
L 197.587987 260.429702 
L 197.912804 260.729876 
L 198.237621 260.69682 
L 198.562438 260.326136 
L 199.049663 259.160402 
L 199.536888 257.344079 
L 200.348931 253.291486 
L 201.810607 245.647492 
L 202.460241 243.43976 
L 202.785058 242.821889 
L 203.109875 242.574053 
L 203.434692 242.713475 
L 203.759509 243.242277 
L 204.246734 244.732146 
L 204.896368 247.831229 
L 206.033228 254.953498 
L 207.007678 260.606516 
L 207.494904 262.561549 
L 207.982129 263.652878 
L 208.306946 263.833721 
L 208.631763 263.554181 
L 208.95658 262.814562 
L 209.443806 260.888139 
L 210.093439 257.030993 
L 211.392707 247.160864 
L 212.20475 241.729217 
L 212.691975 239.500226 
L 213.016792 238.600002 
L 213.341609 238.228748 
L 213.504017 238.251671 
L 213.828834 238.72348 
L 214.153651 239.758966 
L 214.640877 242.308898 
L 215.290511 247.269209 
L 217.726638 268.341997 
L 218.213863 270.122066 
L 218.53868 270.464922 
L 218.701089 270.366146 
L 219.025906 269.616246 
L 219.350723 268.134475 
L 219.837948 264.614571 
L 220.487582 257.882704 
L 222.923709 229.513668 
L 223.410935 227.183358 
L 223.573343 226.871305 
L 223.735752 226.808668 
L 223.89816 227.002582 
L 224.222977 228.177336 
L 224.547794 230.406356 
L 225.035019 235.653223 
L 225.684653 245.736919 
L 226.821513 268.234867 
L 227.795963 286.080575 
L 228.283189 292.163292 
L 228.608006 294.597758 
L 228.932823 295.488 
L 229.095231 295.298055 
L 229.25764 294.65981 
L 229.582457 291.980297 
L 229.907274 287.363517 
L 230.394499 276.744898 
L 231.044133 255.940029 
L 231.856175 220.855155 
L 234.941936 74.099486 
L 235.429162 61.746205 
L 235.916387 54.890329 
L 236.241204 53.568 
L 236.403613 53.899079 
L 236.72843 56.535811 
L 237.053247 61.746205 
L 237.540472 74.099486 
L 238.190106 97.948247 
L 239.164557 144.787389 
L 241.113459 242.965475 
L 241.925501 272.233638 
L 242.575135 287.363517 
L 243.06236 293.557998 
L 243.387177 295.298055 
L 243.549586 295.488 
L 243.711994 295.247689 
L 244.036811 293.561228 
L 244.361628 290.431082 
L 244.848854 283.523992 
L 245.660896 268.234867 
L 247.122572 240.305181 
L 247.772206 231.90887 
L 248.259432 228.177336 
L 248.584248 227.002582 
L 248.746657 226.808668 
L 248.909065 226.871305 
L 249.233882 227.735574 
L 249.558699 229.513668 
L 250.045925 233.644331 
L 250.857967 243.213721 
L 252.482052 263.126741 
L 253.131686 268.134475 
L 253.618911 270.083471 
L 253.943728 270.464922 
L 254.106137 270.382199 
L 254.430954 269.690239 
L 254.755771 268.341997 
L 255.242996 265.258236 
L 256.055038 258.150316 
L 257.679123 243.399924 
L 258.328757 239.758966 
L 258.653574 238.72348 
L 258.978391 238.251671 
L 259.140799 238.228748 
L 259.465616 238.600002 
L 259.790433 239.500226 
L 260.277659 241.729217 
L 260.927293 245.95464 
L 263.038603 260.888139 
L 263.525828 262.814562 
L 263.850645 263.554181 
L 264.175462 263.833721 
L 264.337871 263.800157 
L 264.662688 263.39464 
L 264.987505 262.561549 
L 265.47473 260.606516 
L 266.286772 255.993799 
L 267.910857 246.142771 
L 268.560491 243.649122 
L 269.047717 242.713475 
L 269.372534 242.574053 
L 269.69735 242.821889 
L 270.022167 243.43976 
L 270.509393 244.988261 
L 271.159027 247.954669 
L 273.270337 258.62118 
L 273.757562 260.016475 
L 274.082379 260.553434 
L 274.407196 260.755589 
L 274.732013 260.620652 
L 275.05683 260.159605 
L 275.544056 258.911382 
L 276.19369 256.417872 
L 278.467408 246.485441 
L 278.954634 245.364598 
L 279.279451 244.969458 
L 279.604268 244.870868 
L 279.929085 245.068293 
L 280.253901 245.549555 
L 280.741127 246.750215 
L 281.390761 249.049163 
L 283.502071 257.334395 
L 283.989296 258.415857 
L 284.476522 258.935962 
L 284.801339 258.951548 
L 285.126156 258.704087 
L 285.613381 257.871366 
L 286.263015 256.042396 
L 287.399874 251.784682 
L 288.374325 248.401773 
L 289.023959 246.909398 
L 289.511185 246.36049 
L 289.836002 246.29242 
L 290.160819 246.463806 
L 290.485636 246.864991 
L 290.972861 247.854677 
L 291.622495 249.739993 
L 293.733805 256.504451 
L 294.221031 257.378743 
L 294.708256 257.789861 
L 295.033073 257.790646 
L 295.35789 257.574306 
L 295.845115 256.868843 
L 296.494749 255.3354 
L 297.631609 251.784956 
L 298.606059 248.976725 
L 299.255693 247.747389 
L 299.742919 247.304674 
L 300.067736 247.259637 
L 300.392553 247.415558 
L 300.879778 248.006203 
L 301.529412 249.359218 
L 302.503863 252.116284 
L 303.640722 255.248106 
L 304.290356 256.450767 
L 304.777582 256.919199 
L 305.102398 257.001619 
L 305.427215 256.897282 
L 305.914441 256.405438 
L 306.401666 255.557533 
L 307.213709 253.581407 
L 308.837793 249.390421 
L 309.487427 248.352373 
L 309.974653 247.988036 
L 310.29947 247.960829 
L 310.624287 248.106669 
L 311.111512 248.632151 
L 311.761146 249.817586 
L 312.735597 252.213714 
L 313.872456 254.916359 
L 314.52209 255.943564 
L 315.009316 256.334962 
L 315.334133 256.395491 
L 315.658949 256.293494 
L 316.146175 255.84922 
L 316.795809 254.788579 
L 317.77026 252.573577 
L 318.907119 249.999879 
L 319.556753 248.984186 
L 320.043978 248.56985 
L 320.531204 248.49287 
L 321.018429 248.756189 
L 321.505655 249.332536 
L 322.155289 250.490016 
L 324.591416 255.374722 
L 325.078641 255.808531 
L 325.565867 255.927199 
L 326.053092 255.72362 
L 326.540317 255.219355 
L 327.189951 254.165519 
L 329.788487 249.319217 
L 330.275712 248.964262 
L 330.762938 248.910691 
L 331.250163 249.160164 
L 331.737389 249.687421 
L 332.387023 250.733752 
L 334.82315 255.08679 
L 335.310375 255.462258 
L 335.797601 255.554247 
L 336.284826 255.357354 
L 336.772051 254.891879 
L 337.421685 253.932337 
L 340.020221 249.588949 
L 340.507446 249.28212 
L 340.994672 249.247759 
L 341.481897 249.486393 
L 341.969123 249.97429 
L 342.781165 251.209208 
L 344.730067 254.503107 
L 345.379701 255.098534 
L 345.866926 255.256023 
L 346.354152 255.150524 
L 346.841377 254.793737 
L 347.491011 253.988595 
L 348.62787 252.07079 
L 349.76473 250.304874 
L 350.414364 249.695228 
L 350.901589 249.509769 
L 351.388814 249.575358 
L 351.87604 249.884043 
L 352.525674 250.620025 
L 353.500125 252.158705 
L 354.799392 254.15706 
L 355.449026 254.77863 
L 355.936252 254.989343 
L 356.423477 254.960381 
L 356.910703 254.69626 
L 357.560337 254.024897 
L 358.534787 252.573346 
L 359.834055 250.628495 
L 360.483689 249.99707 
L 360.970915 249.763542 
L 361.45814 249.758816 
L 361.945365 249.981533 
L 362.594999 250.592334 
L 363.56945 251.961226 
L 365.031126 254.041462 
L 365.68076 254.60091 
L 366.167986 254.78366 
L 366.655211 254.745306 
L 367.142437 254.490911 
L 367.792071 253.860042 
L 368.766521 252.512573 
L 370.065789 250.72665 
L 370.715423 250.155457 
L 371.202649 249.950506 
L 371.689874 249.957439 
L 372.177099 250.174118 
L 372.826733 250.750916 
L 373.801184 252.026618 
L 375.262861 253.942427 
L 375.912494 254.448629 
L 376.39972 254.60736 
L 376.886945 254.560887 
L 377.374171 254.314766 
L 378.023805 253.718576 
L 378.998255 252.460461 
L 380.297523 250.811279 
L 380.947157 250.292014 
L 381.434383 250.11174 
L 381.921608 250.128781 
L 382.408834 250.340303 
L 383.058467 250.887807 
L 384.032918 252.083031 
L 385.332186 253.698967 
L 385.98182 254.229513 
L 386.631454 254.454445 
L 387.118679 254.400889 
L 387.768313 254.044483 
L 388.580356 253.231892 
L 390.854074 250.613673 
L 391.503708 250.285036 
L 391.990934 250.248942 
L 392.478159 250.397009 
L 393.127793 250.853927 
L 393.939835 251.730449 
L 395.726329 253.781268 
L 396.375963 254.200864 
L 396.863188 254.320445 
L 397.350413 254.26066 
L 398.000047 253.915251 
L 398.487273 253.488138 
L 398.487273 253.488138 
" clip-path="url(#pa6efd0f181)" style="fill: none; stroke: #1f77b4; stroke-width: 1.5; stroke-linecap: square"/>
   </g>
   <g id="patch_3">
    <path d="M 57.6 307.584 
L 57.6 41.472 
" style="fill: none; stroke: #000000; stroke-width: 0.8; stroke-linejoin: miter; stroke-linecap: square"/>
   </g>
   <g id="patch_4">
    <path d="M 414.72 307.584 
L 414.72 41.472 
" style="fill: none; stroke: #000000; stroke-width: 0.8; stroke-linejoin: miter; stroke-linecap: square"/>
   </g>
   <g id="patch_5">
    <path d="M 57.6 307.584 
L 414.72 307.584 
" style="fill: none; stroke: #000000; stroke-width: 0.8; stroke-linejoin: miter; stroke-linecap: square"/>
   </g>
   <g id="patch_6">
    <path d="M 57.6 41.472 
L 414.72 41.472 
" style="fill: none; stroke: #000000; stroke-width: 0.8; stroke-linejoin: miter; stroke-linecap: square"/>
   </g>
   <g id="text_17">
    <!-- assume  $\lim_{x \to \infty}f\left(x\right)=\frac{sin(x)}{x}$ -->
    <g transform="translate(171.66 34.512) scale(0.12 -0.12)">
     <defs>
      <path id="DejaVuSans-61" d="M 2194 1759 
Q 1497 1759 1228 1600 
Q 959 1441 959 1056 
Q 959 750 1161 570 
Q 1363 391 1709 391 
Q 2188 391 2477 730 
Q 2766 1069 2766 1631 
L 2766 1759 
L 2194 1759 
z
M 3341 1997 
L 3341 0 
L 2766 0 
L 2766 531 
Q 2569 213 2275 61 
Q 1981 -91 1556 -91 
Q 1019 -91 701 211 
Q 384 513 384 1019 
Q 384 1609 779 1909 
Q 1175 2209 1959 2209 
L 2766 2209 
L 2766 2266 
Q 2766 2663 2505 2880 
Q 2244 3097 1772 3097 
Q 1472 3097 1187 3025 
Q 903 2953 641 2809 
L 641 3341 
Q 956 3463 1253 3523 
Q 1550 3584 1831 3584 
Q 2591 3584 2966 3190 
Q 3341 2797 3341 1997 
z
" transform="scale(0.015625)"/>
      <path id="DejaVuSans-73" d="M 2834 3397 
L 2834 2853 
Q 2591 2978 2328 3040 
Q 2066 3103 1784 3103 
Q 1356 3103 1142 2972 
Q 928 2841 928 2578 
Q 928 2378 1081 2264 
Q 1234 2150 1697 2047 
L 1894 2003 
Q 2506 1872 2764 1633 
Q 3022 1394 3022 966 
Q 3022 478 2636 193 
Q 2250 -91 1575 -91 
Q 1294 -91 989 -36 
Q 684 19 347 128 
L 347 722 
Q 666 556 975 473 
Q 1284 391 1588 391 
Q 1994 391 2212 530 
Q 2431 669 2431 922 
Q 2431 1156 2273 1281 
Q 2116 1406 1581 1522 
L 1381 1569 
Q 847 1681 609 1914 
Q 372 2147 372 2553 
Q 372 3047 722 3315 
Q 1072 3584 1716 3584 
Q 2034 3584 2315 3537 
Q 2597 3491 2834 3397 
z
" transform="scale(0.015625)"/>
      <path id="DejaVuSans-75" d="M 544 1381 
L 544 3500 
L 1119 3500 
L 1119 1403 
Q 1119 906 1312 657 
Q 1506 409 1894 409 
Q 2359 409 2629 706 
Q 2900 1003 2900 1516 
L 2900 3500 
L 3475 3500 
L 3475 0 
L 2900 0 
L 2900 538 
Q 2691 219 2414 64 
Q 2138 -91 1772 -91 
Q 1169 -91 856 284 
Q 544 659 544 1381 
z
M 1991 3584 
L 1991 3584 
z
" transform="scale(0.015625)"/>
      <path id="DejaVuSans-6d" d="M 3328 2828 
Q 3544 3216 3844 3400 
Q 4144 3584 4550 3584 
Q 5097 3584 5394 3201 
Q 5691 2819 5691 2113 
L 5691 0 
L 5113 0 
L 5113 2094 
Q 5113 2597 4934 2840 
Q 4756 3084 4391 3084 
Q 3944 3084 3684 2787 
Q 3425 2491 3425 1978 
L 3425 0 
L 2847 0 
L 2847 2094 
Q 2847 2600 2669 2842 
Q 2491 3084 2119 3084 
Q 1678 3084 1418 2786 
Q 1159 2488 1159 1978 
L 1159 0 
L 581 0 
L 581 3500 
L 1159 3500 
L 1159 2956 
Q 1356 3278 1631 3431 
Q 1906 3584 2284 3584 
Q 2666 3584 2933 3390 
Q 3200 3197 3328 2828 
z
" transform="scale(0.015625)"/>
      <path id="DejaVuSans-65" d="M 3597 1894 
L 3597 1613 
L 953 1613 
Q 991 1019 1311 708 
Q 1631 397 2203 397 
Q 2534 397 2845 478 
Q 3156 559 3463 722 
L 3463 178 
Q 3153 47 2828 -22 
Q 2503 -91 2169 -91 
Q 1331 -91 842 396 
Q 353 884 353 1716 
Q 353 2575 817 3079 
Q 1281 3584 2069 3584 
Q 2775 3584 3186 3129 
Q 3597 2675 3597 1894 
z
M 3022 2063 
Q 3016 2534 2758 2815 
Q 2500 3097 2075 3097 
Q 1594 3097 1305 2825 
Q 1016 2553 972 2059 
L 3022 2063 
z
" transform="scale(0.015625)"/>
      <path id="DejaVuSans-20" transform="scale(0.015625)"/>
      <path id="DejaVuSans-6c" d="M 603 4863 
L 1178 4863 
L 1178 0 
L 603 0 
L 603 4863 
z
" transform="scale(0.015625)"/>
      <path id="DejaVuSans-69" d="M 603 3500 
L 1178 3500 
L 1178 0 
L 603 0 
L 603 3500 
z
M 603 4863 
L 1178 4863 
L 1178 4134 
L 603 4134 
L 603 4863 
z
" transform="scale(0.015625)"/>
      <path id="DejaVuSans-Oblique-78" d="M 3841 3500 
L 2234 1784 
L 3219 0 
L 2559 0 
L 1819 1388 
L 531 0 
L -166 0 
L 1556 1844 
L 641 3500 
L 1300 3500 
L 1972 2234 
L 3144 3500 
L 3841 3500 
z
" transform="scale(0.015625)"/>
      <path id="DejaVuSans-2192" d="M 5050 2147 
L 5050 1866 
L 3822 638 
L 3447 1013 
L 4175 1741 
L 366 1741 
L 366 2272 
L 4175 2272 
L 3447 3000 
L 3822 3375 
L 5050 2147 
z
" transform="scale(0.015625)"/>
      <path id="DejaVuSans-221e" d="M 2916 1091 
Q 2819 1203 2666 1466 
Q 2456 1091 2272 925 
Q 2041 725 1681 725 
Q 1259 725 981 1041 
Q 688 1372 688 1919 
Q 688 2444 981 2800 
Q 1244 3116 1688 3116 
Q 1916 3116 2084 3022 
Q 2281 2919 2416 2741 
Q 2541 2581 2666 2366 
Q 2875 2741 3059 2906 
Q 3291 3106 3650 3106 
Q 4072 3106 4350 2791 
Q 4644 2459 4644 1913 
Q 4644 1388 4350 1031 
Q 4088 716 3644 716 
Q 3416 716 3247 809 
Q 3078 894 2916 1091 
z
M 1647 1134 
Q 2163 1134 2472 1884 
Q 2075 2703 1647 2703 
Q 1334 2703 1175 2478 
Q 1003 2238 1003 1919 
Q 1003 1569 1175 1353 
Q 1350 1134 1647 1134 
z
M 3684 2697 
Q 3219 2697 2859 1947 
Q 3253 1128 3684 1128 
Q 3997 1128 4156 1353 
Q 4328 1594 4328 1913 
Q 4328 2263 4156 2478 
Q 3981 2697 3684 2697 
z
" transform="scale(0.015625)"/>
      <path id="DejaVuSans-Oblique-66" d="M 3059 4863 
L 2969 4384 
L 2419 4384 
Q 2106 4384 1964 4261 
Q 1822 4138 1753 3809 
L 1691 3500 
L 2638 3500 
L 2553 3053 
L 1606 3053 
L 1013 0 
L 434 0 
L 1031 3053 
L 481 3053 
L 563 3500 
L 1113 3500 
L 1159 3744 
Q 1278 4363 1576 4613 
Q 1875 4863 2516 4863 
L 3059 4863 
z
" transform="scale(0.015625)"/>
      <path id="DejaVuSans-28" d="M 1984 4856 
Q 1566 4138 1362 3434 
Q 1159 2731 1159 2009 
Q 1159 1288 1364 580 
Q 1569 -128 1984 -844 
L 1484 -844 
Q 1016 -109 783 600 
Q 550 1309 550 2009 
Q 550 2706 781 3412 
Q 1013 4119 1484 4856 
L 1984 4856 
z
" transform="scale(0.015625)"/>
      <path id="DejaVuSans-29" d="M 513 4856 
L 1013 4856 
Q 1481 4119 1714 3412 
Q 1947 2706 1947 2009 
Q 1947 1309 1714 600 
Q 1481 -109 1013 -844 
L 513 -844 
Q 928 -128 1133 580 
Q 1338 1288 1338 2009 
Q 1338 2731 1133 3434 
Q 928 4138 513 4856 
z
" transform="scale(0.015625)"/>
      <path id="DejaVuSans-3d" d="M 678 2906 
L 4684 2906 
L 4684 2381 
L 678 2381 
L 678 2906 
z
M 678 1631 
L 4684 1631 
L 4684 1100 
L 678 1100 
L 678 1631 
z
" transform="scale(0.015625)"/>
      <path id="DejaVuSans-Oblique-73" d="M 3200 3397 
L 3091 2853 
Q 2863 2978 2609 3040 
Q 2356 3103 2088 3103 
Q 1634 3103 1373 2948 
Q 1113 2794 1113 2528 
Q 1113 2219 1719 2053 
Q 1766 2041 1788 2034 
L 1972 1978 
Q 2547 1819 2739 1644 
Q 2931 1469 2931 1166 
Q 2931 609 2489 259 
Q 2047 -91 1331 -91 
Q 1053 -91 747 -37 
Q 441 16 72 128 
L 184 722 
Q 500 559 806 475 
Q 1113 391 1394 391 
Q 1816 391 2080 572 
Q 2344 753 2344 1031 
Q 2344 1331 1650 1516 
L 1591 1531 
L 1394 1581 
Q 956 1697 753 1886 
Q 550 2075 550 2369 
Q 550 2928 970 3256 
Q 1391 3584 2113 3584 
Q 2397 3584 2667 3537 
Q 2938 3491 3200 3397 
z
" transform="scale(0.015625)"/>
      <path id="DejaVuSans-Oblique-69" d="M 1172 4863 
L 1747 4863 
L 1606 4134 
L 1031 4134 
L 1172 4863 
z
M 909 3500 
L 1484 3500 
L 800 0 
L 225 0 
L 909 3500 
z
" transform="scale(0.015625)"/>
      <path id="DejaVuSans-Oblique-6e" d="M 3566 2113 
L 3156 0 
L 2578 0 
L 2988 2091 
Q 3016 2238 3031 2350 
Q 3047 2463 3047 2528 
Q 3047 2791 2881 2937 
Q 2716 3084 2419 3084 
Q 1956 3084 1622 2776 
Q 1288 2469 1184 1941 
L 800 0 
L 225 0 
L 903 3500 
L 1478 3500 
L 1363 2950 
Q 1603 3253 1940 3418 
Q 2278 3584 2650 3584 
Q 3113 3584 3367 3334 
Q 3622 3084 3622 2631 
Q 3622 2519 3608 2391 
Q 3594 2263 3566 2113 
z
" transform="scale(0.015625)"/>
     </defs>
     <use xlink:href="#DejaVuSans-61" transform="translate(0 0.782813)"/>
     <use xlink:href="#DejaVuSans-73" transform="translate(61.279297 0.782813)"/>
     <use xlink:href="#DejaVuSans-73" transform="translate(113.378906 0.782813)"/>
     <use xlink:href="#DejaVuSans-75" transform="translate(165.478516 0.782813)"/>
     <use xlink:href="#DejaVuSans-6d" transform="translate(228.857422 0.782813)"/>
     <use xlink:href="#DejaVuSans-65" transform="translate(326.269531 0.782813)"/>
     <use xlink:href="#DejaVuSans-20" transform="translate(387.792969 0.782813)"/>
     <use xlink:href="#DejaVuSans-20" transform="translate(419.580078 0.782813)"/>
     <use xlink:href="#DejaVuSans-6c" transform="translate(454.367188 0.782813)"/>
     <use xlink:href="#DejaVuSans-69" transform="translate(482.150391 0.782813)"/>
     <use xlink:href="#DejaVuSans-6d" transform="translate(509.933594 0.782813)"/>
     <use xlink:href="#DejaVuSans-Oblique-78" transform="translate(451.367188 -56.248437) scale(0.7)"/>
     <use xlink:href="#DejaVuSans-2192" transform="translate(492.792969 -56.248437) scale(0.7)"/>
     <use xlink:href="#DejaVuSans-221e" transform="translate(551.445312 -56.248437) scale(0.7)"/>
     <use xlink:href="#DejaVuSans-Oblique-66" transform="translate(609.755859 0.782813)"/>
     <use xlink:href="#DejaVuSans-28" transform="translate(644.960938 0.782813)"/>
     <use xlink:href="#DejaVuSans-Oblique-78" transform="translate(683.974609 0.782813)"/>
     <use xlink:href="#DejaVuSans-29" transform="translate(743.154297 0.782813)"/>
     <use xlink:href="#DejaVuSans-3d" transform="translate(782.167969 0.782813)"/>
     <use xlink:href="#DejaVuSans-Oblique-73" transform="translate(865.957031 53.810938) scale(0.7)"/>
     <use xlink:href="#DejaVuSans-Oblique-69" transform="translate(902.426758 53.810938) scale(0.7)"/>
     <use xlink:href="#DejaVuSans-Oblique-6e" transform="translate(921.875 53.810938) scale(0.7)"/>
     <use xlink:href="#DejaVuSans-28" transform="translate(966.240234 53.810938) scale(0.7)"/>
     <use xlink:href="#DejaVuSans-Oblique-78" transform="translate(993.549805 53.810938) scale(0.7)"/>
     <use xlink:href="#DejaVuSans-29" transform="translate(1034.975586 53.810938) scale(0.7)"/>
     <use xlink:href="#DejaVuSans-Oblique-78" transform="translate(942.957031 -24.951562) scale(0.7)"/>
     <path d="M 865.957031 19.579688 
L 865.957031 25.829688 
L 1062.285156 25.829688 
L 1062.285156 19.579688 
L 865.957031 19.579688 
z
"/>
    </g>
   </g>
  </g>
 </g>
 <defs>
  <clipPath id="pa6efd0f181">
   <rect x="57.6" y="41.472" width="357.12" height="266.112"/>
  </clipPath>
 </defs>
</svg>
