<?xml version="1.0" encoding="utf-8" standalone="no"?>
<!DOCTYPE svg PUBLIC "-//W3C//DTD SVG 1.1//EN"
  "http://www.w3.org/Graphics/SVG/1.1/DTD/svg11.dtd">
<svg xmlns:xlink="http://www.w3.org/1999/xlink" width="1108.08pt" height="576pt" viewBox="0 0 1108.08 576" xmlns="http://www.w3.org/2000/svg" version="1.1">
 <metadata>
  <rdf:RDF xmlns:dc="http://purl.org/dc/elements/1.1/" xmlns:cc="http://creativecommons.org/ns#" xmlns:rdf="http://www.w3.org/1999/02/22-rdf-syntax-ns#">
   <cc:Work>
    <dc:type rdf:resource="http://purl.org/dc/dcmitype/StillImage"/>
    <dc:date>2024-07-18T15:40:31.705605</dc:date>
    <dc:format>image/svg+xml</dc:format>
    <dc:creator>
     <cc:Agent>
      <dc:title>Matplotlib v3.9.1, https://matplotlib.org/</dc:title>
     </cc:Agent>
    </dc:creator>
   </cc:Work>
  </rdf:RDF>
 </metadata>
 <defs>
  <style type="text/css">*{stroke-linejoin: round; stroke-linecap: butt}</style>
 </defs>
 <g id="figure_1">
  <g id="patch_1">
   <path d="M 0 576 
L 1108.08 576 
L 1108.08 0 
L 0 0 
z
" style="fill: #ffffff"/>
  </g>
  <g id="axes_1">
   <g id="patch_2">
    <path d="M 138.51 512.64 
L 997.272 512.64 
L 997.272 69.12 
L 138.51 69.12 
z
" style="fill: #ffffff"/>
   </g>
   <g id="matplotlib.axis_1">
    <g id="xtick_1">
     <g id="line2d_1">
      <defs>
       <path id="m879ee9af5e" d="M 0 0 
L 0 3.5 
" style="stroke: #000000; stroke-width: 0.8"/>
      </defs>
      <g>
       <use xlink:href="#m879ee9af5e" x="177.544636" y="512.64" style="stroke: #000000; stroke-width: 0.8"/>
      </g>
     </g>
     <g id="text_1">
      <!-- −100 -->
      <g transform="translate(163.811043 527.238438) scale(0.1 -0.1)">
       <defs>
        <path id="DejaVuSans-2212" d="M 678 2272 
L 4684 2272 
L 4684 1741 
L 678 1741 
L 678 2272 
z
" transform="scale(0.015625)"/>
        <path id="DejaVuSans-31" d="M 794 531 
L 1825 531 
L 1825 4091 
L 703 3866 
L 703 4441 
L 1819 4666 
L 2450 4666 
L 2450 531 
L 3481 531 
L 3481 0 
L 794 0 
L 794 531 
z
" transform="scale(0.015625)"/>
        <path id="DejaVuSans-30" d="M 2034 4250 
Q 1547 4250 1301 3770 
Q 1056 3291 1056 2328 
Q 1056 1369 1301 889 
Q 1547 409 2034 409 
Q 2525 409 2770 889 
Q 3016 1369 3016 2328 
Q 3016 3291 2770 3770 
Q 2525 4250 2034 4250 
z
M 2034 4750 
Q 2819 4750 3233 4129 
Q 3647 3509 3647 2328 
Q 3647 1150 3233 529 
Q 2819 -91 2034 -91 
Q 1250 -91 836 529 
Q 422 1150 422 2328 
Q 422 3509 836 4129 
Q 1250 4750 2034 4750 
z
" transform="scale(0.015625)"/>
       </defs>
       <use xlink:href="#DejaVuSans-2212"/>
       <use xlink:href="#DejaVuSans-31" x="83.789062"/>
       <use xlink:href="#DejaVuSans-30" x="147.412109"/>
       <use xlink:href="#DejaVuSans-30" x="211.035156"/>
      </g>
     </g>
    </g>
    <g id="xtick_2">
     <g id="line2d_2">
      <g>
       <use xlink:href="#m879ee9af5e" x="275.180045" y="512.64" style="stroke: #000000; stroke-width: 0.8"/>
      </g>
     </g>
     <g id="text_2">
      <!-- −75 -->
      <g transform="translate(264.627701 527.238438) scale(0.1 -0.1)">
       <defs>
        <path id="DejaVuSans-37" d="M 525 4666 
L 3525 4666 
L 3525 4397 
L 1831 0 
L 1172 0 
L 2766 4134 
L 525 4134 
L 525 4666 
z
" transform="scale(0.015625)"/>
        <path id="DejaVuSans-35" d="M 691 4666 
L 3169 4666 
L 3169 4134 
L 1269 4134 
L 1269 2991 
Q 1406 3038 1543 3061 
Q 1681 3084 1819 3084 
Q 2600 3084 3056 2656 
Q 3513 2228 3513 1497 
Q 3513 744 3044 326 
Q 2575 -91 1722 -91 
Q 1428 -91 1123 -41 
Q 819 9 494 109 
L 494 744 
Q 775 591 1075 516 
Q 1375 441 1709 441 
Q 2250 441 2565 725 
Q 2881 1009 2881 1497 
Q 2881 1984 2565 2268 
Q 2250 2553 1709 2553 
Q 1456 2553 1204 2497 
Q 953 2441 691 2322 
L 691 4666 
z
" transform="scale(0.015625)"/>
       </defs>
       <use xlink:href="#DejaVuSans-2212"/>
       <use xlink:href="#DejaVuSans-37" x="83.789062"/>
       <use xlink:href="#DejaVuSans-35" x="147.412109"/>
      </g>
     </g>
    </g>
    <g id="xtick_3">
     <g id="line2d_3">
      <g>
       <use xlink:href="#m879ee9af5e" x="372.815454" y="512.64" style="stroke: #000000; stroke-width: 0.8"/>
      </g>
     </g>
     <g id="text_3">
      <!-- −50 -->
      <g transform="translate(362.26311 527.238438) scale(0.1 -0.1)">
       <use xlink:href="#DejaVuSans-2212"/>
       <use xlink:href="#DejaVuSans-35" x="83.789062"/>
       <use xlink:href="#DejaVuSans-30" x="147.412109"/>
      </g>
     </g>
    </g>
    <g id="xtick_4">
     <g id="line2d_4">
      <g>
       <use xlink:href="#m879ee9af5e" x="470.450862" y="512.64" style="stroke: #000000; stroke-width: 0.8"/>
      </g>
     </g>
     <g id="text_4">
      <!-- −25 -->
      <g transform="translate(459.898518 527.238438) scale(0.1 -0.1)">
       <defs>
        <path id="DejaVuSans-32" d="M 1228 531 
L 3431 531 
L 3431 0 
L 469 0 
L 469 531 
Q 828 903 1448 1529 
Q 2069 2156 2228 2338 
Q 2531 2678 2651 2914 
Q 2772 3150 2772 3378 
Q 2772 3750 2511 3984 
Q 2250 4219 1831 4219 
Q 1534 4219 1204 4116 
Q 875 4013 500 3803 
L 500 4441 
Q 881 4594 1212 4672 
Q 1544 4750 1819 4750 
Q 2544 4750 2975 4387 
Q 3406 4025 3406 3419 
Q 3406 3131 3298 2873 
Q 3191 2616 2906 2266 
Q 2828 2175 2409 1742 
Q 1991 1309 1228 531 
z
" transform="scale(0.015625)"/>
       </defs>
       <use xlink:href="#DejaVuSans-2212"/>
       <use xlink:href="#DejaVuSans-32" x="83.789062"/>
       <use xlink:href="#DejaVuSans-35" x="147.412109"/>
      </g>
     </g>
    </g>
    <g id="xtick_5">
     <g id="line2d_5">
      <g>
       <use xlink:href="#m879ee9af5e" x="568.086271" y="512.64" style="stroke: #000000; stroke-width: 0.8"/>
      </g>
     </g>
     <g id="text_5">
      <!-- 0 -->
      <g transform="translate(564.905021 527.238438) scale(0.1 -0.1)">
       <use xlink:href="#DejaVuSans-30"/>
      </g>
     </g>
    </g>
    <g id="xtick_6">
     <g id="line2d_6">
      <g>
       <use xlink:href="#m879ee9af5e" x="665.721679" y="512.64" style="stroke: #000000; stroke-width: 0.8"/>
      </g>
     </g>
     <g id="text_6">
      <!-- 25 -->
      <g transform="translate(659.359179 527.238438) scale(0.1 -0.1)">
       <use xlink:href="#DejaVuSans-32"/>
       <use xlink:href="#DejaVuSans-35" x="63.623047"/>
      </g>
     </g>
    </g>
    <g id="xtick_7">
     <g id="line2d_7">
      <g>
       <use xlink:href="#m879ee9af5e" x="763.357088" y="512.64" style="stroke: #000000; stroke-width: 0.8"/>
      </g>
     </g>
     <g id="text_7">
      <!-- 50 -->
      <g transform="translate(756.994588 527.238438) scale(0.1 -0.1)">
       <use xlink:href="#DejaVuSans-35"/>
       <use xlink:href="#DejaVuSans-30" x="63.623047"/>
      </g>
     </g>
    </g>
    <g id="xtick_8">
     <g id="line2d_8">
      <g>
       <use xlink:href="#m879ee9af5e" x="860.992497" y="512.64" style="stroke: #000000; stroke-width: 0.8"/>
      </g>
     </g>
     <g id="text_8">
      <!-- 75 -->
      <g transform="translate(854.629997 527.238438) scale(0.1 -0.1)">
       <use xlink:href="#DejaVuSans-37"/>
       <use xlink:href="#DejaVuSans-35" x="63.623047"/>
      </g>
     </g>
    </g>
    <g id="xtick_9">
     <g id="line2d_9">
      <g>
       <use xlink:href="#m879ee9af5e" x="958.627905" y="512.64" style="stroke: #000000; stroke-width: 0.8"/>
      </g>
     </g>
     <g id="text_9">
      <!-- 100 -->
      <g transform="translate(949.084155 527.238438) scale(0.1 -0.1)">
       <use xlink:href="#DejaVuSans-31"/>
       <use xlink:href="#DejaVuSans-30" x="63.623047"/>
       <use xlink:href="#DejaVuSans-30" x="127.246094"/>
      </g>
     </g>
    </g>
   </g>
   <g id="matplotlib.axis_2">
    <g id="ytick_1">
     <g id="line2d_10">
      <defs>
       <path id="m44ff59556b" d="M 0 0 
L -3.5 0 
" style="stroke: #000000; stroke-width: 0.8"/>
      </defs>
      <g>
       <use xlink:href="#m44ff59556b" x="138.51" y="477.892922" style="stroke: #000000; stroke-width: 0.8"/>
      </g>
     </g>
     <g id="text_10">
      <!-- −20 -->
      <g transform="translate(110.405312 481.69214) scale(0.1 -0.1)">
       <use xlink:href="#DejaVuSans-2212"/>
       <use xlink:href="#DejaVuSans-32" x="83.789062"/>
       <use xlink:href="#DejaVuSans-30" x="147.412109"/>
      </g>
     </g>
    </g>
    <g id="ytick_2">
     <g id="line2d_11">
      <g>
       <use xlink:href="#m44ff59556b" x="138.51" y="425.621963" style="stroke: #000000; stroke-width: 0.8"/>
      </g>
     </g>
     <g id="text_11">
      <!-- −15 -->
      <g transform="translate(110.405312 429.421181) scale(0.1 -0.1)">
       <use xlink:href="#DejaVuSans-2212"/>
       <use xlink:href="#DejaVuSans-31" x="83.789062"/>
       <use xlink:href="#DejaVuSans-35" x="147.412109"/>
      </g>
     </g>
    </g>
    <g id="ytick_3">
     <g id="line2d_12">
      <g>
       <use xlink:href="#m44ff59556b" x="138.51" y="373.351004" style="stroke: #000000; stroke-width: 0.8"/>
      </g>
     </g>
     <g id="text_12">
      <!-- −10 -->
      <g transform="translate(110.405312 377.150223) scale(0.1 -0.1)">
       <use xlink:href="#DejaVuSans-2212"/>
       <use xlink:href="#DejaVuSans-31" x="83.789062"/>
       <use xlink:href="#DejaVuSans-30" x="147.412109"/>
      </g>
     </g>
    </g>
    <g id="ytick_4">
     <g id="line2d_13">
      <g>
       <use xlink:href="#m44ff59556b" x="138.51" y="321.080045" style="stroke: #000000; stroke-width: 0.8"/>
      </g>
     </g>
     <g id="text_13">
      <!-- −5 -->
      <g transform="translate(116.767812 324.879264) scale(0.1 -0.1)">
       <use xlink:href="#DejaVuSans-2212"/>
       <use xlink:href="#DejaVuSans-35" x="83.789062"/>
      </g>
     </g>
    </g>
    <g id="ytick_5">
     <g id="line2d_14">
      <g>
       <use xlink:href="#m44ff59556b" x="138.51" y="268.809086" style="stroke: #000000; stroke-width: 0.8"/>
      </g>
     </g>
     <g id="text_14">
      <!-- 0 -->
      <g transform="translate(125.1475 272.608305) scale(0.1 -0.1)">
       <use xlink:href="#DejaVuSans-30"/>
      </g>
     </g>
    </g>
    <g id="ytick_6">
     <g id="line2d_15">
      <g>
       <use xlink:href="#m44ff59556b" x="138.51" y="216.538127" style="stroke: #000000; stroke-width: 0.8"/>
      </g>
     </g>
     <g id="text_15">
      <!-- 5 -->
      <g transform="translate(125.1475 220.337346) scale(0.1 -0.1)">
       <use xlink:href="#DejaVuSans-35"/>
      </g>
     </g>
    </g>
    <g id="ytick_7">
     <g id="line2d_16">
      <g>
       <use xlink:href="#m44ff59556b" x="138.51" y="164.267168" style="stroke: #000000; stroke-width: 0.8"/>
      </g>
     </g>
     <g id="text_16">
      <!-- 10 -->
      <g transform="translate(118.785 168.066387) scale(0.1 -0.1)">
       <use xlink:href="#DejaVuSans-31"/>
       <use xlink:href="#DejaVuSans-30" x="63.623047"/>
      </g>
     </g>
    </g>
    <g id="ytick_8">
     <g id="line2d_17">
      <g>
       <use xlink:href="#m44ff59556b" x="138.51" y="111.996209" style="stroke: #000000; stroke-width: 0.8"/>
      </g>
     </g>
     <g id="text_17">
      <!-- 15 -->
      <g transform="translate(118.785 115.795428) scale(0.1 -0.1)">
       <use xlink:href="#DejaVuSans-31"/>
       <use xlink:href="#DejaVuSans-35" x="63.623047"/>
      </g>
     </g>
    </g>
   </g>
   <g id="line2d_18">
    <path d="M 177.544636 268.870474 
L 179.887886 269.032585 
L 180.668969 269.240041 
L 181.059511 269.558581 
L 181.450053 271.458805 
L 181.840594 267.054398 
L 182.231136 268.154118 
L 182.621678 268.411197 
L 183.402761 268.594959 
L 185.355469 268.734429 
L 192.385218 269.080043 
L 193.166302 269.402725 
L 193.556843 270.144936 
L 193.947385 262.935216 
L 194.337927 267.892148 
L 194.728468 268.316779 
L 195.509552 268.562758 
L 197.46226 268.724955 
L 204.492009 269.058511 
L 205.273092 269.305281 
L 205.663634 269.720215 
L 206.054176 273.707896 
L 206.444717 267.345481 
L 206.835259 268.177186 
L 207.616342 268.523009 
L 209.178509 268.693399 
L 217.379883 269.238725 
L 217.770425 269.510696 
L 218.160966 270.612444 
L 218.551508 265.509968 
L 218.94205 267.950667 
L 219.332591 268.32097 
L 220.113675 268.556849 
L 222.066383 268.722075 
L 229.096132 269.089099 
L 229.877215 269.386201 
L 230.267757 269.942802 
L 230.658299 288.3182 
L 231.04884 267.5214 
L 231.439382 268.191142 
L 232.220465 268.516523 
L 233.782632 268.688992 
L 241.593464 269.154022 
L 241.984006 269.303959 
L 242.374548 269.651038 
L 242.765089 271.432912 
L 243.155631 266.404404 
L 243.546173 267.988947 
L 243.936714 268.320309 
L 244.717797 268.549176 
L 246.670506 268.718671 
L 253.700255 269.12557 
L 254.090797 269.245792 
L 254.481338 269.48827 
L 254.87188 270.263477 
L 255.262422 256.511578 
L 255.652963 267.632512 
L 256.043505 268.197059 
L 256.824588 268.507797 
L 258.386755 268.683741 
L 266.197587 269.202665 
L 266.588129 269.384894 
L 266.978671 269.838376 
L 267.369212 273.190149 
L 267.759754 266.842564 
L 268.150296 268.011408 
L 268.540837 268.314715 
L 269.32192 268.539406 
L 271.274629 268.71462 
L 277.913836 269.084322 
L 278.69492 269.313798 
L 279.085461 269.619572 
L 279.476003 270.754938 
L 279.866545 263.645622 
L 280.257086 267.701951 
L 280.647628 268.195337 
L 281.428711 268.496409 
L 282.990878 268.677437 
L 290.80171 269.262241 
L 291.192252 269.487013 
L 291.582794 270.096833 
L 291.973335 279.247064 
L 292.363877 267.088191 
L 292.754419 268.020345 
L 293.14496 268.303791 
L 293.926043 268.527067 
L 295.878752 268.709751 
L 302.517959 269.122724 
L 303.299043 269.398764 
L 303.689584 269.792462 
L 304.080126 271.579767 
L 304.470668 265.310698 
L 304.861209 267.741232 
L 305.251751 268.185786 
L 306.032834 268.481756 
L 307.595001 268.669791 
L 315.015292 269.193504 
L 315.405833 269.336373 
L 315.796375 269.618423 
L 316.186917 270.468738 
L 316.577458 207.537901 
L 316.968 267.23077 
L 317.358541 268.016571 
L 318.139625 268.425571 
L 319.31125 268.615285 
L 322.435583 268.797742 
L 326.731541 269.091968 
L 327.512624 269.290469 
L 327.903166 269.506906 
L 328.293707 270.026609 
L 328.684249 273.186102 
L 329.074791 266.014836 
L 329.465332 267.755931 
L 329.855874 268.167581 
L 330.636957 268.462959 
L 332.199124 268.660395 
L 339.619415 269.255808 
L 340.009956 269.430358 
L 340.400498 269.791521 
L 340.79104 271.034637 
L 341.181581 259.565822 
L 341.572123 267.307493 
L 341.962664 267.999624 
L 342.743748 268.402785 
L 343.915373 268.601205 
L 347.039706 268.799596 
L 350.945122 269.071278 
L 352.116747 269.375507 
L 352.507289 269.64762 
L 352.89783 270.354891 
L 353.288372 277.397316 
L 353.678914 266.368687 
L 354.069455 267.747905 
L 354.459997 268.139085 
L 355.24108 268.438711 
L 356.803247 268.648647 
L 363.832996 269.20879 
L 364.614079 269.55223 
L 365.004621 270.026049 
L 365.395163 271.965912 
L 365.785704 263.248541 
L 366.176246 267.334496 
L 366.566787 267.967638 
L 367.347871 268.372856 
L 368.519496 268.583349 
L 371.643829 268.801909 
L 375.549245 269.115535 
L 376.330328 269.305312 
L 376.72087 269.486029 
L 377.111412 269.835683 
L 377.501953 270.83572 
L 377.892495 309.205847 
L 378.283036 266.544091 
L 378.673578 267.715941 
L 379.06412 268.097458 
L 379.845203 268.407004 
L 381.40737 268.633629 
L 388.437119 269.2833 
L 388.827661 269.439081 
L 389.218202 269.714692 
L 389.608744 270.355028 
L 389.999286 273.693064 
L 390.389827 264.485645 
L 390.780369 267.316751 
L 391.17091 267.916814 
L 391.951994 268.332989 
L 393.123619 268.560148 
L 395.85741 268.781054 
L 399.762826 269.103874 
L 400.934451 269.405851 
L 401.324993 269.634039 
L 401.715535 270.095511 
L 402.106076 271.581298 
L 402.496618 247.371468 
L 402.887159 266.601757 
L 403.277701 267.655309 
L 403.668243 268.037871 
L 404.449326 268.3646 
L 406.011493 268.613863 
L 413.041242 269.383124 
L 413.431784 269.579587 
L 413.822325 269.938965 
L 414.212867 270.837163 
L 414.603408 277.646357 
L 414.99395 265.000461 
L 415.384492 267.250639 
L 415.775033 267.840182 
L 416.556117 268.27854 
L 417.727742 268.529003 
L 420.461533 268.781089 
L 424.366949 269.166421 
L 425.148033 269.369057 
L 425.929116 269.840067 
L 426.319658 270.470034 
L 426.710199 272.830807 
L 427.100741 258.584572 
L 427.491282 266.558394 
L 427.881824 267.555884 
L 428.272366 267.951837 
L 429.053449 268.305953 
L 430.615615 268.586813 
L 437.254823 269.362718 
L 438.035907 269.778201 
L 438.426448 270.263046 
L 438.81699 271.585326 
L 439.207531 292.667774 
L 439.598073 265.15423 
L 439.988615 267.122027 
L 440.379156 267.724796 
L 441.16024 268.201233 
L 442.331865 268.485281 
L 445.065656 268.781118 
L 448.580531 269.172249 
L 449.752156 269.514545 
L 450.142697 269.743261 
L 450.533239 270.142167 
L 450.92378 271.041171 
L 451.314322 275.174839 
L 451.704864 261.041039 
L 452.095405 266.400778 
L 452.485947 267.397267 
L 452.876489 267.823383 
L 453.657572 268.220722 
L 454.829197 268.48928 
L 457.562988 268.799603 
L 460.687321 269.180918 
L 461.858946 269.518579 
L 462.249488 269.730577 
L 462.64003 270.076639 
L 463.030571 270.761717 
L 463.421113 272.840407 
L 463.811654 158.127818 
L 464.202196 265.026793 
L 464.592738 266.897719 
L 464.983279 267.54481 
L 465.764363 268.084796 
L 466.935987 268.419833 
L 469.279237 268.739321 
L 472.794112 269.194634 
L 473.965737 269.535949 
L 474.74682 270.053329 
L 475.137362 270.619267 
L 475.527903 271.983899 
L 475.918445 280.443805 
L 476.308987 261.636743 
L 476.699528 266.074527 
L 477.09007 267.135572 
L 477.480612 267.618959 
L 478.261695 268.087223 
L 479.43332 268.41416 
L 481.77657 268.75739 
L 484.900903 269.215115 
L 486.072528 269.569503 
L 486.853611 270.068735 
L 487.244152 270.567724 
L 487.634694 271.60352 
L 488.025236 275.19824 
L 488.415777 243.633016 
L 488.806319 264.550786 
L 489.196861 266.498555 
L 489.587402 267.241455 
L 490.368486 267.892316 
L 491.54011 268.311751 
L 493.492819 268.669068 
L 497.398235 269.346678 
L 498.56986 269.831907 
L 498.960402 270.127282 
L 499.350943 270.594085 
L 499.741485 271.465037 
L 500.132026 273.740354 
L 500.522568 297.254761 
L 500.91311 261.107871 
L 501.303651 265.425601 
L 501.694193 266.660494 
L 502.084735 267.25474 
L 502.865818 267.851017 
L 504.037443 268.280788 
L 505.990151 268.681247 
L 509.114484 269.290873 
L 510.286109 269.713922 
L 511.067192 270.244088 
L 511.457734 270.708194 
L 511.848275 271.507341 
L 512.238817 273.258979 
L 512.629359 280.510595 
L 513.0199 248.869576 
L 513.410442 263.399335 
L 513.800984 265.697583 
L 514.191525 266.648068 
L 514.972609 267.518438 
L 515.753692 267.949788 
L 517.315858 268.436739 
L 521.611816 269.499909 
L 522.3929 269.860432 
L 523.173983 270.455746 
L 523.564524 270.95159 
L 523.955066 271.753621 
L 524.345608 273.311314 
L 524.736149 277.795313 
L 525.126691 483.548493 
L 525.517233 258.804532 
L 525.907774 263.922924 
L 526.298316 265.600391 
L 526.688858 266.447311 
L 527.469941 267.325729 
L 528.251024 267.804815 
L 529.813191 268.38891 
L 533.328065 269.489106 
L 534.49969 270.124409 
L 535.280774 270.85725 
L 535.671315 271.443262 
L 536.061857 272.345343 
L 536.452398 273.948932 
L 536.84294 277.694772 
L 537.233482 297.545029 
L 537.624023 244.004745 
L 538.014565 260.06168 
L 538.405107 263.510096 
L 538.795648 265.037194 
L 539.18619 265.914004 
L 539.967273 266.914814 
L 540.748356 267.507617 
L 542.310523 268.289769 
L 545.044314 269.523357 
L 546.215939 270.328571 
L 546.997023 271.166198 
L 547.387564 271.770331 
L 547.778106 272.600021 
L 548.168647 273.829946 
L 548.559189 275.877196 
L 548.949731 280.047327 
L 549.340272 293.60484 
L 549.730814 89.28 
L 550.121356 248.673006 
L 550.511897 258.035851 
L 550.902439 261.452367 
L 551.292981 263.251716 
L 552.074064 265.179374 
L 552.855147 266.269455 
L 554.026772 267.376087 
L 556.760563 269.697351 
L 557.541647 270.639451 
L 558.32273 271.932892 
L 559.103813 273.896249 
L 559.494355 275.337363 
L 559.884896 277.321021 
L 560.275438 280.230499 
L 560.66598 284.91458 
L 561.056521 293.703198 
L 561.447063 316.13953 
L 561.837605 492.48 
L 562.228146 170.529787 
L 562.618688 225.514666 
L 563.00923 239.842109 
L 563.399771 246.400947 
L 563.790313 250.136382 
L 564.180854 252.527647 
L 564.961938 255.354037 
L 565.743021 256.888924 
L 566.524104 257.759182 
L 567.305188 258.213238 
L 568.086271 258.354894 
L 568.867354 258.213238 
L 569.648437 257.759182 
L 570.429521 256.888924 
L 571.210604 255.354037 
L 571.601146 254.17138 
L 571.991687 252.527647 
L 572.382229 250.136382 
L 572.77277 246.400947 
L 573.163312 239.842109 
L 573.553854 225.514666 
L 573.944395 170.529787 
L 574.334937 492.48 
L 574.725479 316.13953 
L 575.11602 293.703198 
L 575.506562 284.91458 
L 575.897104 280.230499 
L 576.287645 277.321021 
L 577.068728 273.896249 
L 577.849812 271.932892 
L 578.630895 270.639451 
L 579.80252 269.305822 
L 581.364686 267.996374 
L 582.926853 266.680953 
L 583.707936 265.783064 
L 584.489019 264.384026 
L 584.879561 263.251716 
L 585.270103 261.452367 
L 585.660644 258.035851 
L 586.051186 248.673006 
L 586.441728 89.28 
L 586.832269 293.60484 
L 587.222811 280.047327 
L 587.613353 275.877196 
L 588.003894 273.829946 
L 588.394436 272.600021 
L 589.175519 271.166198 
L 589.956602 270.328571 
L 591.128227 269.523357 
L 592.690394 268.781181 
L 595.033644 267.734711 
L 595.814727 267.241115 
L 596.59581 266.494039 
L 596.986352 265.914004 
L 597.376893 265.037194 
L 597.767435 263.510096 
L 598.157977 260.06168 
L 598.548518 244.004745 
L 598.93906 297.545029 
L 599.329602 277.694772 
L 599.720143 273.948932 
L 600.110685 272.345343 
L 600.501226 271.443262 
L 601.28231 270.440388 
L 602.063393 269.873199 
L 603.235018 269.334485 
L 605.578268 268.616296 
L 607.530976 267.980214 
L 608.312059 267.59319 
L 609.093142 266.967256 
L 609.483684 266.447311 
L 609.874226 265.600391 
L 610.264767 263.922924 
L 610.655309 258.804532 
L 611.045851 483.548494 
L 611.436392 277.795313 
L 611.826934 273.311314 
L 612.217476 271.753621 
L 612.608017 270.95159 
L 613.3891 270.113971 
L 614.170184 269.661945 
L 615.341809 269.244022 
L 618.0756 268.614724 
L 620.028308 268.1005 
L 620.809391 267.762832 
L 621.590475 267.176216 
L 621.981016 266.648068 
L 622.371558 265.697583 
L 622.7621 263.399335 
L 623.152641 248.869576 
L 623.543183 280.510595 
L 623.933725 273.258979 
L 624.324266 271.507341 
L 624.714808 270.708194 
L 625.495891 269.93631 
L 626.276974 269.543111 
L 627.839141 269.104408 
L 632.916182 268.028326 
L 633.697265 267.610182 
L 634.087807 267.25474 
L 634.478349 266.660494 
L 634.86889 265.425601 
L 635.259432 261.107871 
L 635.649974 297.254761 
L 636.040515 273.740354 
L 636.431057 271.465037 
L 636.821598 270.594085 
L 637.602682 269.831907 
L 638.383765 269.469625 
L 639.945932 269.083229 
L 645.413514 268.070061 
L 646.194598 267.6397 
L 646.585139 267.241455 
L 646.975681 266.498555 
L 647.366223 264.550786 
L 647.756764 243.633016 
L 648.147306 275.19824 
L 648.537848 271.60352 
L 648.928389 270.567724 
L 649.318931 270.068735 
L 650.100014 269.569503 
L 651.271639 269.215115 
L 653.614889 268.852718 
L 657.129763 268.328541 
L 658.301388 267.900095 
L 658.69193 267.618959 
L 659.082472 267.135572 
L 659.473013 266.074527 
L 659.863555 261.636743 
L 660.254097 280.443805 
L 660.644638 271.983899 
L 661.03518 270.619267 
L 661.425721 270.053329 
L 662.206805 269.535949 
L 663.37843 269.194634 
L 665.721679 268.864922 
L 669.627096 268.335128 
L 670.408179 268.084796 
L 670.798721 267.878111 
L 671.189262 267.54481 
L 671.579804 266.897719 
L 671.970346 265.026793 
L 672.360887 158.127818 
L 672.751429 272.840407 
L 673.14197 270.761717 
L 673.532512 270.076639 
L 674.313595 269.518579 
L 675.48522 269.180918 
L 677.82847 268.874609 
L 681.733886 268.419672 
L 682.905511 268.063724 
L 683.296053 267.823383 
L 683.686595 267.397267 
L 684.077136 266.400778 
L 684.467678 261.041039 
L 684.85822 275.174839 
L 685.248761 271.041171 
L 685.639303 270.142167 
L 686.029844 269.743261 
L 686.810928 269.3639 
L 687.982553 269.105306 
L 690.716344 268.814389 
L 694.231219 268.414303 
L 695.012302 268.201233 
L 695.793385 267.724796 
L 696.183927 267.122027 
L 696.574469 265.15423 
L 696.96501 292.667774 
L 697.355552 271.585326 
L 697.746093 270.263046 
L 698.136635 269.778201 
L 698.917718 269.362718 
L 700.089343 269.101599 
L 702.823135 268.826535 
L 706.338009 268.477973 
L 707.509634 268.167726 
L 707.900176 267.951837 
L 708.290718 267.555884 
L 708.681259 266.558394 
L 709.071801 258.584572 
L 709.462342 272.830807 
L 709.852884 270.470034 
L 710.243426 269.840067 
L 711.024509 269.369057 
L 712.196134 269.100276 
L 714.929925 268.836733 
L 718.835342 268.467169 
L 720.006967 268.11601 
L 720.397508 267.840182 
L 720.78805 267.250639 
L 721.178592 265.000461 
L 721.569133 277.646357 
L 721.959675 270.837163 
L 722.350216 269.938965 
L 722.740758 269.579587 
L 723.521841 269.257294 
L 725.084008 269.002993 
L 732.113757 268.238738 
L 732.504299 268.037871 
L 732.894841 267.655309 
L 733.285382 266.601757 
L 733.675924 247.371468 
L 734.066465 271.581298 
L 734.457007 270.095511 
L 734.847549 269.634039 
L 735.628632 269.267609 
L 736.800257 269.049585 
L 739.92459 268.804879 
L 743.439465 268.504768 
L 744.61109 268.181505 
L 745.001631 267.916814 
L 745.392173 267.316751 
L 745.782714 264.485645 
L 746.173256 273.693064 
L 746.563798 270.355028 
L 746.954339 269.714692 
L 747.735423 269.2833 
L 748.907048 269.052966 
L 751.640839 268.836785 
L 755.936797 268.487746 
L 756.71788 268.289469 
L 757.108422 268.097458 
L 757.498964 267.715941 
L 757.889505 266.544091 
L 758.280047 309.205847 
L 758.670588 270.83572 
L 759.06113 269.835683 
L 759.451672 269.486029 
L 760.232755 269.193169 
L 761.794922 268.974525 
L 768.824671 268.372856 
L 769.605754 267.967638 
L 769.996296 267.334496 
L 770.386837 263.248541 
L 770.777379 271.965912 
L 771.167921 270.026049 
L 771.558462 269.55223 
L 772.339546 269.20879 
L 773.901712 268.978586 
L 778.588212 268.704903 
L 780.931462 268.438711 
L 781.712545 268.139085 
L 782.103086 267.747905 
L 782.493628 266.368687 
L 782.88417 277.397316 
L 783.274711 270.354891 
L 783.665253 269.64762 
L 784.446336 269.229242 
L 785.617961 269.022164 
L 788.742294 268.818098 
L 792.647711 268.554126 
L 793.819336 268.262317 
L 794.209877 267.999624 
L 794.600419 267.307493 
L 794.99096 259.565822 
L 795.381502 271.034637 
L 795.772044 269.791521 
L 796.162585 269.430358 
L 796.943669 269.151311 
L 798.505835 268.955405 
L 805.926126 268.354485 
L 806.316668 268.167581 
L 806.707209 267.755931 
L 807.097751 266.014836 
L 807.488293 273.186102 
L 807.878834 270.026609 
L 808.269376 269.506906 
L 809.050459 269.169979 
L 810.612626 268.960303 
L 815.689667 268.703826 
L 817.642375 268.51149 
L 818.423459 268.28676 
L 818.814 268.016571 
L 819.204542 267.23077 
L 819.595083 207.537901 
L 819.985625 270.468738 
L 820.376167 269.618423 
L 820.766708 269.336373 
L 821.547792 269.105809 
L 823.5005 268.912324 
L 830.139708 268.481756 
L 830.920791 268.185786 
L 831.311332 267.741232 
L 831.701874 265.310698 
L 832.092416 271.579767 
L 832.482957 269.792462 
L 832.873499 269.398764 
L 833.654582 269.122724 
L 835.216749 268.9418 
L 842.63704 268.442984 
L 843.027581 268.303791 
L 843.418123 268.020345 
L 843.808665 267.088191 
L 844.199206 279.247064 
L 844.589748 270.096833 
L 844.98029 269.487013 
L 845.761373 269.143566 
L 847.323539 268.947119 
L 852.400581 268.722348 
L 854.743831 268.496409 
L 855.524914 268.195337 
L 855.915455 267.701951 
L 856.305997 263.645622 
L 856.696539 270.754938 
L 857.08708 269.619572 
L 857.477622 269.313798 
L 858.258705 269.084322 
L 860.211413 268.904338 
L 867.241163 268.45619 
L 867.631704 268.314715 
L 868.022246 268.011408 
L 868.412788 266.842564 
L 868.803329 273.190149 
L 869.193871 269.838376 
L 869.584413 269.384894 
L 870.365496 269.102833 
L 871.927662 268.931735 
L 879.738495 268.400975 
L 880.129037 268.197059 
L 880.519578 267.632512 
L 880.91012 256.511578 
L 881.300662 270.263477 
L 881.691203 269.48827 
L 882.472287 269.12557 
L 884.034453 268.937283 
L 889.502036 268.718671 
L 891.454744 268.549176 
L 892.235827 268.320309 
L 892.626369 267.988947 
L 893.016911 266.404404 
L 893.407452 271.432912 
L 893.797994 269.651038 
L 894.188536 269.303959 
L 894.969619 269.069113 
L 896.922327 268.898288 
L 903.952076 268.516523 
L 904.73316 268.191142 
L 905.123701 267.5214 
L 905.514243 288.3182 
L 905.904785 269.942802 
L 906.295326 269.386201 
L 907.07641 269.089099 
L 908.638576 268.924086 
L 916.449409 268.472846 
L 916.83995 268.32097 
L 917.230492 267.950667 
L 917.621034 265.509968 
L 918.011575 270.612444 
L 918.402117 269.510696 
L 918.792659 269.238725 
L 919.573742 269.040844 
L 921.52645 268.889168 
L 928.556199 268.523009 
L 928.946741 268.411111 
L 929.337283 268.177186 
L 929.727824 267.345481 
L 930.118366 273.707896 
L 930.508908 269.720215 
L 930.899449 269.305281 
L 931.680532 269.058511 
L 933.633241 268.893603 
L 941.053532 268.477173 
L 941.444073 268.316779 
L 941.834615 267.892148 
L 942.225157 262.935216 
L 942.615698 270.144936 
L 943.00624 269.402725 
L 943.787323 269.080043 
L 945.34949 268.918171 
L 953.550864 268.411197 
L 953.941406 268.154118 
L 954.331947 267.054398 
L 954.722489 271.458805 
L 955.113031 269.558581 
L 955.503572 269.240041 
L 956.284655 269.032585 
L 958.237364 268.88554 
L 958.237364 268.88554 
" clip-path="url(#pc3742508d4)" style="fill: none; stroke: #1f77b4; stroke-width: 1.5; stroke-linecap: square"/>
   </g>
   <g id="line2d_19">
    <path d="M -1 258.354894 
L 1109.08 258.354894 
" clip-path="url(#pc3742508d4)" style="fill: none; stroke: #ff0000; stroke-width: 1.5; stroke-linecap: square"/>
   </g>
   <g id="patch_3">
    <path d="M 138.51 512.64 
L 138.51 69.12 
" style="fill: none; stroke: #000000; stroke-width: 0.8; stroke-linejoin: miter; stroke-linecap: square"/>
   </g>
   <g id="patch_4">
    <path d="M 997.272 512.64 
L 997.272 69.12 
" style="fill: none; stroke: #000000; stroke-width: 0.8; stroke-linejoin: miter; stroke-linecap: square"/>
   </g>
   <g id="patch_5">
    <path d="M 138.51 512.64 
L 997.272 512.64 
" style="fill: none; stroke: #000000; stroke-width: 0.8; stroke-linejoin: miter; stroke-linecap: square"/>
   </g>
   <g id="patch_6">
    <path d="M 138.51 69.12 
L 997.272 69.12 
" style="fill: none; stroke: #000000; stroke-width: 0.8; stroke-linejoin: miter; stroke-linecap: square"/>
   </g>
   <g id="patch_7">
    <path d="M 185.838999 222.564582 
Q 181.917098 239.48765 178.24761 255.32155 
" style="fill: none; stroke: #000000; stroke-linecap: round"/>
    <path d="M 181.099036 251.876354 
L 178.24761 255.32155 
L 177.202309 250.973292 
" style="fill: none; stroke: #000000; stroke-linecap: round"/>
   </g>
   <g id="text_18">
    <!-- y=1 -->
    <g transform="translate(177.544636 216.538127) scale(0.1 -0.1)">
     <defs>
      <path id="DejaVuSans-79" d="M 2059 -325 
Q 1816 -950 1584 -1140 
Q 1353 -1331 966 -1331 
L 506 -1331 
L 506 -850 
L 844 -850 
Q 1081 -850 1212 -737 
Q 1344 -625 1503 -206 
L 1606 56 
L 191 3500 
L 800 3500 
L 1894 763 
L 2988 3500 
L 3597 3500 
L 2059 -325 
z
" transform="scale(0.015625)"/>
      <path id="DejaVuSans-3d" d="M 678 2906 
L 4684 2906 
L 4684 2381 
L 678 2381 
L 678 2906 
z
M 678 1631 
L 4684 1631 
L 4684 1100 
L 678 1100 
L 678 1631 
z
" transform="scale(0.015625)"/>
     </defs>
     <use xlink:href="#DejaVuSans-79"/>
     <use xlink:href="#DejaVuSans-3d" x="59.179688"/>
     <use xlink:href="#DejaVuSans-31" x="142.96875"/>
    </g>
   </g>
   <g id="text_19">
    <!-- assume  $\lim_{x \to \infty}f\left(x\right)=\frac{tan(x)}{x}$ -->
    <g transform="translate(502.491 62.16) scale(0.12 -0.12)">
     <defs>
      <path id="DejaVuSans-61" d="M 2194 1759 
Q 1497 1759 1228 1600 
Q 959 1441 959 1056 
Q 959 750 1161 570 
Q 1363 391 1709 391 
Q 2188 391 2477 730 
Q 2766 1069 2766 1631 
L 2766 1759 
L 2194 1759 
z
M 3341 1997 
L 3341 0 
L 2766 0 
L 2766 531 
Q 2569 213 2275 61 
Q 1981 -91 1556 -91 
Q 1019 -91 701 211 
Q 384 513 384 1019 
Q 384 1609 779 1909 
Q 1175 2209 1959 2209 
L 2766 2209 
L 2766 2266 
Q 2766 2663 2505 2880 
Q 2244 3097 1772 3097 
Q 1472 3097 1187 3025 
Q 903 2953 641 2809 
L 641 3341 
Q 956 3463 1253 3523 
Q 1550 3584 1831 3584 
Q 2591 3584 2966 3190 
Q 3341 2797 3341 1997 
z
" transform="scale(0.015625)"/>
      <path id="DejaVuSans-73" d="M 2834 3397 
L 2834 2853 
Q 2591 2978 2328 3040 
Q 2066 3103 1784 3103 
Q 1356 3103 1142 2972 
Q 928 2841 928 2578 
Q 928 2378 1081 2264 
Q 1234 2150 1697 2047 
L 1894 2003 
Q 2506 1872 2764 1633 
Q 3022 1394 3022 966 
Q 3022 478 2636 193 
Q 2250 -91 1575 -91 
Q 1294 -91 989 -36 
Q 684 19 347 128 
L 347 722 
Q 666 556 975 473 
Q 1284 391 1588 391 
Q 1994 391 2212 530 
Q 2431 669 2431 922 
Q 2431 1156 2273 1281 
Q 2116 1406 1581 1522 
L 1381 1569 
Q 847 1681 609 1914 
Q 372 2147 372 2553 
Q 372 3047 722 3315 
Q 1072 3584 1716 3584 
Q 2034 3584 2315 3537 
Q 2597 3491 2834 3397 
z
" transform="scale(0.015625)"/>
      <path id="DejaVuSans-75" d="M 544 1381 
L 544 3500 
L 1119 3500 
L 1119 1403 
Q 1119 906 1312 657 
Q 1506 409 1894 409 
Q 2359 409 2629 706 
Q 2900 1003 2900 1516 
L 2900 3500 
L 3475 3500 
L 3475 0 
L 2900 0 
L 2900 538 
Q 2691 219 2414 64 
Q 2138 -91 1772 -91 
Q 1169 -91 856 284 
Q 544 659 544 1381 
z
M 1991 3584 
L 1991 3584 
z
" transform="scale(0.015625)"/>
      <path id="DejaVuSans-6d" d="M 3328 2828 
Q 3544 3216 3844 3400 
Q 4144 3584 4550 3584 
Q 5097 3584 5394 3201 
Q 5691 2819 5691 2113 
L 5691 0 
L 5113 0 
L 5113 2094 
Q 5113 2597 4934 2840 
Q 4756 3084 4391 3084 
Q 3944 3084 3684 2787 
Q 3425 2491 3425 1978 
L 3425 0 
L 2847 0 
L 2847 2094 
Q 2847 2600 2669 2842 
Q 2491 3084 2119 3084 
Q 1678 3084 1418 2786 
Q 1159 2488 1159 1978 
L 1159 0 
L 581 0 
L 581 3500 
L 1159 3500 
L 1159 2956 
Q 1356 3278 1631 3431 
Q 1906 3584 2284 3584 
Q 2666 3584 2933 3390 
Q 3200 3197 3328 2828 
z
" transform="scale(0.015625)"/>
      <path id="DejaVuSans-65" d="M 3597 1894 
L 3597 1613 
L 953 1613 
Q 991 1019 1311 708 
Q 1631 397 2203 397 
Q 2534 397 2845 478 
Q 3156 559 3463 722 
L 3463 178 
Q 3153 47 2828 -22 
Q 2503 -91 2169 -91 
Q 1331 -91 842 396 
Q 353 884 353 1716 
Q 353 2575 817 3079 
Q 1281 3584 2069 3584 
Q 2775 3584 3186 3129 
Q 3597 2675 3597 1894 
z
M 3022 2063 
Q 3016 2534 2758 2815 
Q 2500 3097 2075 3097 
Q 1594 3097 1305 2825 
Q 1016 2553 972 2059 
L 3022 2063 
z
" transform="scale(0.015625)"/>
      <path id="DejaVuSans-20" transform="scale(0.015625)"/>
      <path id="DejaVuSans-6c" d="M 603 4863 
L 1178 4863 
L 1178 0 
L 603 0 
L 603 4863 
z
" transform="scale(0.015625)"/>
      <path id="DejaVuSans-69" d="M 603 3500 
L 1178 3500 
L 1178 0 
L 603 0 
L 603 3500 
z
M 603 4863 
L 1178 4863 
L 1178 4134 
L 603 4134 
L 603 4863 
z
" transform="scale(0.015625)"/>
      <path id="DejaVuSans-Oblique-78" d="M 3841 3500 
L 2234 1784 
L 3219 0 
L 2559 0 
L 1819 1388 
L 531 0 
L -166 0 
L 1556 1844 
L 641 3500 
L 1300 3500 
L 1972 2234 
L 3144 3500 
L 3841 3500 
z
" transform="scale(0.015625)"/>
      <path id="DejaVuSans-2192" d="M 5050 2147 
L 5050 1866 
L 3822 638 
L 3447 1013 
L 4175 1741 
L 366 1741 
L 366 2272 
L 4175 2272 
L 3447 3000 
L 3822 3375 
L 5050 2147 
z
" transform="scale(0.015625)"/>
      <path id="DejaVuSans-221e" d="M 2916 1091 
Q 2819 1203 2666 1466 
Q 2456 1091 2272 925 
Q 2041 725 1681 725 
Q 1259 725 981 1041 
Q 688 1372 688 1919 
Q 688 2444 981 2800 
Q 1244 3116 1688 3116 
Q 1916 3116 2084 3022 
Q 2281 2919 2416 2741 
Q 2541 2581 2666 2366 
Q 2875 2741 3059 2906 
Q 3291 3106 3650 3106 
Q 4072 3106 4350 2791 
Q 4644 2459 4644 1913 
Q 4644 1388 4350 1031 
Q 4088 716 3644 716 
Q 3416 716 3247 809 
Q 3078 894 2916 1091 
z
M 1647 1134 
Q 2163 1134 2472 1884 
Q 2075 2703 1647 2703 
Q 1334 2703 1175 2478 
Q 1003 2238 1003 1919 
Q 1003 1569 1175 1353 
Q 1350 1134 1647 1134 
z
M 3684 2697 
Q 3219 2697 2859 1947 
Q 3253 1128 3684 1128 
Q 3997 1128 4156 1353 
Q 4328 1594 4328 1913 
Q 4328 2263 4156 2478 
Q 3981 2697 3684 2697 
z
" transform="scale(0.015625)"/>
      <path id="DejaVuSans-Oblique-66" d="M 3059 4863 
L 2969 4384 
L 2419 4384 
Q 2106 4384 1964 4261 
Q 1822 4138 1753 3809 
L 1691 3500 
L 2638 3500 
L 2553 3053 
L 1606 3053 
L 1013 0 
L 434 0 
L 1031 3053 
L 481 3053 
L 563 3500 
L 1113 3500 
L 1159 3744 
Q 1278 4363 1576 4613 
Q 1875 4863 2516 4863 
L 3059 4863 
z
" transform="scale(0.015625)"/>
      <path id="DejaVuSans-28" d="M 1984 4856 
Q 1566 4138 1362 3434 
Q 1159 2731 1159 2009 
Q 1159 1288 1364 580 
Q 1569 -128 1984 -844 
L 1484 -844 
Q 1016 -109 783 600 
Q 550 1309 550 2009 
Q 550 2706 781 3412 
Q 1013 4119 1484 4856 
L 1984 4856 
z
" transform="scale(0.015625)"/>
      <path id="DejaVuSans-29" d="M 513 4856 
L 1013 4856 
Q 1481 4119 1714 3412 
Q 1947 2706 1947 2009 
Q 1947 1309 1714 600 
Q 1481 -109 1013 -844 
L 513 -844 
Q 928 -128 1133 580 
Q 1338 1288 1338 2009 
Q 1338 2731 1133 3434 
Q 928 4138 513 4856 
z
" transform="scale(0.015625)"/>
      <path id="DejaVuSans-Oblique-74" d="M 2706 3500 
L 2619 3053 
L 1472 3053 
L 1100 1153 
Q 1081 1047 1072 975 
Q 1063 903 1063 863 
Q 1063 663 1183 572 
Q 1303 481 1569 481 
L 2150 481 
L 2053 0 
L 1503 0 
Q 991 0 739 200 
Q 488 400 488 806 
Q 488 878 497 964 
Q 506 1050 525 1153 
L 897 3053 
L 409 3053 
L 500 3500 
L 978 3500 
L 1172 4494 
L 1747 4494 
L 1556 3500 
L 2706 3500 
z
" transform="scale(0.015625)"/>
      <path id="DejaVuSans-Oblique-61" d="M 3438 1997 
L 3047 0 
L 2472 0 
L 2578 531 
Q 2325 219 2001 64 
Q 1678 -91 1281 -91 
Q 834 -91 548 182 
Q 263 456 263 884 
Q 263 1497 752 1853 
Q 1241 2209 2100 2209 
L 2900 2209 
L 2931 2363 
Q 2938 2388 2941 2417 
Q 2944 2447 2944 2509 
Q 2944 2788 2717 2942 
Q 2491 3097 2081 3097 
Q 1800 3097 1504 3025 
Q 1209 2953 897 2809 
L 997 3341 
Q 1322 3463 1633 3523 
Q 1944 3584 2234 3584 
Q 2853 3584 3176 3315 
Q 3500 3047 3500 2534 
Q 3500 2431 3484 2292 
Q 3469 2153 3438 1997 
z
M 2816 1759 
L 2241 1759 
Q 1534 1759 1195 1570 
Q 856 1381 856 984 
Q 856 709 1029 553 
Q 1203 397 1509 397 
Q 1978 397 2328 733 
Q 2678 1069 2791 1631 
L 2816 1759 
z
" transform="scale(0.015625)"/>
      <path id="DejaVuSans-Oblique-6e" d="M 3566 2113 
L 3156 0 
L 2578 0 
L 2988 2091 
Q 3016 2238 3031 2350 
Q 3047 2463 3047 2528 
Q 3047 2791 2881 2937 
Q 2716 3084 2419 3084 
Q 1956 3084 1622 2776 
Q 1288 2469 1184 1941 
L 800 0 
L 225 0 
L 903 3500 
L 1478 3500 
L 1363 2950 
Q 1603 3253 1940 3418 
Q 2278 3584 2650 3584 
Q 3113 3584 3367 3334 
Q 3622 3084 3622 2631 
Q 3622 2519 3608 2391 
Q 3594 2263 3566 2113 
z
" transform="scale(0.015625)"/>
     </defs>
     <use xlink:href="#DejaVuSans-61" transform="translate(0 0.859375)"/>
     <use xlink:href="#DejaVuSans-73" transform="translate(61.279297 0.859375)"/>
     <use xlink:href="#DejaVuSans-73" transform="translate(113.378906 0.859375)"/>
     <use xlink:href="#DejaVuSans-75" transform="translate(165.478516 0.859375)"/>
     <use xlink:href="#DejaVuSans-6d" transform="translate(228.857422 0.859375)"/>
     <use xlink:href="#DejaVuSans-65" transform="translate(326.269531 0.859375)"/>
     <use xlink:href="#DejaVuSans-20" transform="translate(387.792969 0.859375)"/>
     <use xlink:href="#DejaVuSans-20" transform="translate(419.580078 0.859375)"/>
     <use xlink:href="#DejaVuSans-6c" transform="translate(454.367188 0.859375)"/>
     <use xlink:href="#DejaVuSans-69" transform="translate(482.150391 0.859375)"/>
     <use xlink:href="#DejaVuSans-6d" transform="translate(509.933594 0.859375)"/>
     <use xlink:href="#DejaVuSans-Oblique-78" transform="translate(451.367188 -56.171875) scale(0.7)"/>
     <use xlink:href="#DejaVuSans-2192" transform="translate(492.792969 -56.171875) scale(0.7)"/>
     <use xlink:href="#DejaVuSans-221e" transform="translate(551.445312 -56.171875) scale(0.7)"/>
     <use xlink:href="#DejaVuSans-Oblique-66" transform="translate(609.755859 0.859375)"/>
     <use xlink:href="#DejaVuSans-28" transform="translate(644.960938 0.859375)"/>
     <use xlink:href="#DejaVuSans-Oblique-78" transform="translate(683.974609 0.859375)"/>
     <use xlink:href="#DejaVuSans-29" transform="translate(743.154297 0.859375)"/>
     <use xlink:href="#DejaVuSans-3d" transform="translate(782.167969 0.859375)"/>
     <use xlink:href="#DejaVuSans-Oblique-74" transform="translate(865.957031 53.8875) scale(0.7)"/>
     <use xlink:href="#DejaVuSans-Oblique-61" transform="translate(893.40332 53.8875) scale(0.7)"/>
     <use xlink:href="#DejaVuSans-Oblique-6e" transform="translate(936.298828 53.8875) scale(0.7)"/>
     <use xlink:href="#DejaVuSans-28" transform="translate(980.664062 53.8875) scale(0.7)"/>
     <use xlink:href="#DejaVuSans-Oblique-78" transform="translate(1007.973633 53.8875) scale(0.7)"/>
     <use xlink:href="#DejaVuSans-29" transform="translate(1049.399414 53.8875) scale(0.7)"/>
     <use xlink:href="#DejaVuSans-Oblique-78" transform="translate(950.957031 -24.875) scale(0.7)"/>
     <path d="M 865.957031 19.65625 
L 865.957031 25.90625 
L 1076.708984 25.90625 
L 1076.708984 19.65625 
L 865.957031 19.65625 
z
"/>
    </g>
   </g>
  </g>
 </g>
 <defs>
  <clipPath id="pc3742508d4">
   <rect x="138.51" y="69.12" width="858.762" height="443.52"/>
  </clipPath>
 </defs>
</svg>
