<?xml version="1.0" encoding="utf-8" standalone="no"?>
<!DOCTYPE svg PUBLIC "-//W3C//DTD SVG 1.1//EN"
  "http://www.w3.org/Graphics/SVG/1.1/DTD/svg11.dtd">
<svg xmlns:xlink="http://www.w3.org/1999/xlink" width="1108.08pt" height="576pt" viewBox="0 0 1108.08 576" xmlns="http://www.w3.org/2000/svg" version="1.1">
 <metadata>
  <rdf:RDF xmlns:dc="http://purl.org/dc/elements/1.1/" xmlns:cc="http://creativecommons.org/ns#" xmlns:rdf="http://www.w3.org/1999/02/22-rdf-syntax-ns#">
   <cc:Work>
    <dc:type rdf:resource="http://purl.org/dc/dcmitype/StillImage"/>
    <dc:date>2024-07-18T17:08:38.720122</dc:date>
    <dc:format>image/svg+xml</dc:format>
    <dc:creator>
     <cc:Agent>
      <dc:title>Matplotlib v3.9.1, https://matplotlib.org/</dc:title>
     </cc:Agent>
    </dc:creator>
   </cc:Work>
  </rdf:RDF>
 </metadata>
 <defs>
  <style type="text/css">*{stroke-linejoin: round; stroke-linecap: butt}</style>
 </defs>
 <g id="figure_1">
  <g id="patch_1">
   <path d="M 0 576 
L 1108.08 576 
L 1108.08 0 
L 0 0 
z
" style="fill: #ffffff"/>
  </g>
  <g id="axes_1">
   <g id="patch_2">
    <path d="M 138.51 512.64 
L 997.272 512.64 
L 997.272 69.12 
L 138.51 69.12 
z
" style="fill: #ffffff"/>
   </g>
   <g id="matplotlib.axis_1">
    <g id="xtick_1">
     <g id="line2d_1">
      <defs>
       <path id="mb19d18a8b6" d="M 0 0 
L 0 3.5 
" style="stroke: #000000; stroke-width: 0.8"/>
      </defs>
      <g>
       <use xlink:href="#mb19d18a8b6" x="242.783583" y="512.64" style="stroke: #000000; stroke-width: 0.8"/>
      </g>
     </g>
     <g id="text_1">
      <!-- −150 -->
      <g transform="translate(229.049989 527.238438) scale(0.1 -0.1)">
       <defs>
        <path id="DejaVuSans-2212" d="M 678 2272 
L 4684 2272 
L 4684 1741 
L 678 1741 
L 678 2272 
z
" transform="scale(0.015625)"/>
        <path id="DejaVuSans-31" d="M 794 531 
L 1825 531 
L 1825 4091 
L 703 3866 
L 703 4441 
L 1819 4666 
L 2450 4666 
L 2450 531 
L 3481 531 
L 3481 0 
L 794 0 
L 794 531 
z
" transform="scale(0.015625)"/>
        <path id="DejaVuSans-35" d="M 691 4666 
L 3169 4666 
L 3169 4134 
L 1269 4134 
L 1269 2991 
Q 1406 3038 1543 3061 
Q 1681 3084 1819 3084 
Q 2600 3084 3056 2656 
Q 3513 2228 3513 1497 
Q 3513 744 3044 326 
Q 2575 -91 1722 -91 
Q 1428 -91 1123 -41 
Q 819 9 494 109 
L 494 744 
Q 775 591 1075 516 
Q 1375 441 1709 441 
Q 2250 441 2565 725 
Q 2881 1009 2881 1497 
Q 2881 1984 2565 2268 
Q 2250 2553 1709 2553 
Q 1456 2553 1204 2497 
Q 953 2441 691 2322 
L 691 4666 
z
" transform="scale(0.015625)"/>
        <path id="DejaVuSans-30" d="M 2034 4250 
Q 1547 4250 1301 3770 
Q 1056 3291 1056 2328 
Q 1056 1369 1301 889 
Q 1547 409 2034 409 
Q 2525 409 2770 889 
Q 3016 1369 3016 2328 
Q 3016 3291 2770 3770 
Q 2525 4250 2034 4250 
z
M 2034 4750 
Q 2819 4750 3233 4129 
Q 3647 3509 3647 2328 
Q 3647 1150 3233 529 
Q 2819 -91 2034 -91 
Q 1250 -91 836 529 
Q 422 1150 422 2328 
Q 422 3509 836 4129 
Q 1250 4750 2034 4750 
z
" transform="scale(0.015625)"/>
       </defs>
       <use xlink:href="#DejaVuSans-2212"/>
       <use xlink:href="#DejaVuSans-31" x="83.789062"/>
       <use xlink:href="#DejaVuSans-35" x="147.412109"/>
       <use xlink:href="#DejaVuSans-30" x="211.035156"/>
      </g>
     </g>
    </g>
    <g id="xtick_2">
     <g id="line2d_2">
      <g>
       <use xlink:href="#mb19d18a8b6" x="351.515161" y="512.64" style="stroke: #000000; stroke-width: 0.8"/>
      </g>
     </g>
     <g id="text_2">
      <!-- −100 -->
      <g transform="translate(337.781567 527.238438) scale(0.1 -0.1)">
       <use xlink:href="#DejaVuSans-2212"/>
       <use xlink:href="#DejaVuSans-31" x="83.789062"/>
       <use xlink:href="#DejaVuSans-30" x="147.412109"/>
       <use xlink:href="#DejaVuSans-30" x="211.035156"/>
      </g>
     </g>
    </g>
    <g id="xtick_3">
     <g id="line2d_3">
      <g>
       <use xlink:href="#mb19d18a8b6" x="460.246738" y="512.64" style="stroke: #000000; stroke-width: 0.8"/>
      </g>
     </g>
     <g id="text_3">
      <!-- −50 -->
      <g transform="translate(449.694394 527.238438) scale(0.1 -0.1)">
       <use xlink:href="#DejaVuSans-2212"/>
       <use xlink:href="#DejaVuSans-35" x="83.789062"/>
       <use xlink:href="#DejaVuSans-30" x="147.412109"/>
      </g>
     </g>
    </g>
    <g id="xtick_4">
     <g id="line2d_4">
      <g>
       <use xlink:href="#mb19d18a8b6" x="568.978316" y="512.64" style="stroke: #000000; stroke-width: 0.8"/>
      </g>
     </g>
     <g id="text_4">
      <!-- 0 -->
      <g transform="translate(565.797066 527.238438) scale(0.1 -0.1)">
       <use xlink:href="#DejaVuSans-30"/>
      </g>
     </g>
    </g>
    <g id="xtick_5">
     <g id="line2d_5">
      <g>
       <use xlink:href="#mb19d18a8b6" x="677.709893" y="512.64" style="stroke: #000000; stroke-width: 0.8"/>
      </g>
     </g>
     <g id="text_5">
      <!-- 50 -->
      <g transform="translate(671.347393 527.238438) scale(0.1 -0.1)">
       <use xlink:href="#DejaVuSans-35"/>
       <use xlink:href="#DejaVuSans-30" x="63.623047"/>
      </g>
     </g>
    </g>
    <g id="xtick_6">
     <g id="line2d_6">
      <g>
       <use xlink:href="#mb19d18a8b6" x="786.441471" y="512.64" style="stroke: #000000; stroke-width: 0.8"/>
      </g>
     </g>
     <g id="text_6">
      <!-- 100 -->
      <g transform="translate(776.897721 527.238438) scale(0.1 -0.1)">
       <use xlink:href="#DejaVuSans-31"/>
       <use xlink:href="#DejaVuSans-30" x="63.623047"/>
       <use xlink:href="#DejaVuSans-30" x="127.246094"/>
      </g>
     </g>
    </g>
    <g id="xtick_7">
     <g id="line2d_7">
      <g>
       <use xlink:href="#mb19d18a8b6" x="895.173049" y="512.64" style="stroke: #000000; stroke-width: 0.8"/>
      </g>
     </g>
     <g id="text_7">
      <!-- 150 -->
      <g transform="translate(885.629299 527.238438) scale(0.1 -0.1)">
       <use xlink:href="#DejaVuSans-31"/>
       <use xlink:href="#DejaVuSans-35" x="63.623047"/>
       <use xlink:href="#DejaVuSans-30" x="127.246094"/>
      </g>
     </g>
    </g>
   </g>
   <g id="matplotlib.axis_2">
    <g id="ytick_1">
     <g id="line2d_8">
      <defs>
       <path id="m5bd1ff7ed4" d="M 0 0 
L -3.5 0 
" style="stroke: #000000; stroke-width: 0.8"/>
      </defs>
      <g>
       <use xlink:href="#m5bd1ff7ed4" x="138.51" y="492.48" style="stroke: #000000; stroke-width: 0.8"/>
      </g>
     </g>
     <g id="text_8">
      <!-- −1.00 -->
      <g transform="translate(100.864687 496.279219) scale(0.1 -0.1)">
       <defs>
        <path id="DejaVuSans-2e" d="M 684 794 
L 1344 794 
L 1344 0 
L 684 0 
L 684 794 
z
" transform="scale(0.015625)"/>
       </defs>
       <use xlink:href="#DejaVuSans-2212"/>
       <use xlink:href="#DejaVuSans-31" x="83.789062"/>
       <use xlink:href="#DejaVuSans-2e" x="147.412109"/>
       <use xlink:href="#DejaVuSans-30" x="179.199219"/>
       <use xlink:href="#DejaVuSans-30" x="242.822266"/>
      </g>
     </g>
    </g>
    <g id="ytick_2">
     <g id="line2d_9">
      <g>
       <use xlink:href="#m5bd1ff7ed4" x="138.51" y="442.08" style="stroke: #000000; stroke-width: 0.8"/>
      </g>
     </g>
     <g id="text_9">
      <!-- −0.75 -->
      <g transform="translate(100.864687 445.879219) scale(0.1 -0.1)">
       <defs>
        <path id="DejaVuSans-37" d="M 525 4666 
L 3525 4666 
L 3525 4397 
L 1831 0 
L 1172 0 
L 2766 4134 
L 525 4134 
L 525 4666 
z
" transform="scale(0.015625)"/>
       </defs>
       <use xlink:href="#DejaVuSans-2212"/>
       <use xlink:href="#DejaVuSans-30" x="83.789062"/>
       <use xlink:href="#DejaVuSans-2e" x="147.412109"/>
       <use xlink:href="#DejaVuSans-37" x="179.199219"/>
       <use xlink:href="#DejaVuSans-35" x="242.822266"/>
      </g>
     </g>
    </g>
    <g id="ytick_3">
     <g id="line2d_10">
      <g>
       <use xlink:href="#m5bd1ff7ed4" x="138.51" y="391.68" style="stroke: #000000; stroke-width: 0.8"/>
      </g>
     </g>
     <g id="text_10">
      <!-- −0.50 -->
      <g transform="translate(100.864687 395.479219) scale(0.1 -0.1)">
       <use xlink:href="#DejaVuSans-2212"/>
       <use xlink:href="#DejaVuSans-30" x="83.789062"/>
       <use xlink:href="#DejaVuSans-2e" x="147.412109"/>
       <use xlink:href="#DejaVuSans-35" x="179.199219"/>
       <use xlink:href="#DejaVuSans-30" x="242.822266"/>
      </g>
     </g>
    </g>
    <g id="ytick_4">
     <g id="line2d_11">
      <g>
       <use xlink:href="#m5bd1ff7ed4" x="138.51" y="341.28" style="stroke: #000000; stroke-width: 0.8"/>
      </g>
     </g>
     <g id="text_11">
      <!-- −0.25 -->
      <g transform="translate(100.864687 345.079219) scale(0.1 -0.1)">
       <defs>
        <path id="DejaVuSans-32" d="M 1228 531 
L 3431 531 
L 3431 0 
L 469 0 
L 469 531 
Q 828 903 1448 1529 
Q 2069 2156 2228 2338 
Q 2531 2678 2651 2914 
Q 2772 3150 2772 3378 
Q 2772 3750 2511 3984 
Q 2250 4219 1831 4219 
Q 1534 4219 1204 4116 
Q 875 4013 500 3803 
L 500 4441 
Q 881 4594 1212 4672 
Q 1544 4750 1819 4750 
Q 2544 4750 2975 4387 
Q 3406 4025 3406 3419 
Q 3406 3131 3298 2873 
Q 3191 2616 2906 2266 
Q 2828 2175 2409 1742 
Q 1991 1309 1228 531 
z
" transform="scale(0.015625)"/>
       </defs>
       <use xlink:href="#DejaVuSans-2212"/>
       <use xlink:href="#DejaVuSans-30" x="83.789062"/>
       <use xlink:href="#DejaVuSans-2e" x="147.412109"/>
       <use xlink:href="#DejaVuSans-32" x="179.199219"/>
       <use xlink:href="#DejaVuSans-35" x="242.822266"/>
      </g>
     </g>
    </g>
    <g id="ytick_5">
     <g id="line2d_12">
      <g>
       <use xlink:href="#m5bd1ff7ed4" x="138.51" y="290.88" style="stroke: #000000; stroke-width: 0.8"/>
      </g>
     </g>
     <g id="text_12">
      <!-- 0.00 -->
      <g transform="translate(109.244375 294.679219) scale(0.1 -0.1)">
       <use xlink:href="#DejaVuSans-30"/>
       <use xlink:href="#DejaVuSans-2e" x="63.623047"/>
       <use xlink:href="#DejaVuSans-30" x="95.410156"/>
       <use xlink:href="#DejaVuSans-30" x="159.033203"/>
      </g>
     </g>
    </g>
    <g id="ytick_6">
     <g id="line2d_13">
      <g>
       <use xlink:href="#m5bd1ff7ed4" x="138.51" y="240.48" style="stroke: #000000; stroke-width: 0.8"/>
      </g>
     </g>
     <g id="text_13">
      <!-- 0.25 -->
      <g transform="translate(109.244375 244.279219) scale(0.1 -0.1)">
       <use xlink:href="#DejaVuSans-30"/>
       <use xlink:href="#DejaVuSans-2e" x="63.623047"/>
       <use xlink:href="#DejaVuSans-32" x="95.410156"/>
       <use xlink:href="#DejaVuSans-35" x="159.033203"/>
      </g>
     </g>
    </g>
    <g id="ytick_7">
     <g id="line2d_14">
      <g>
       <use xlink:href="#m5bd1ff7ed4" x="138.51" y="190.08" style="stroke: #000000; stroke-width: 0.8"/>
      </g>
     </g>
     <g id="text_14">
      <!-- 0.50 -->
      <g transform="translate(109.244375 193.879219) scale(0.1 -0.1)">
       <use xlink:href="#DejaVuSans-30"/>
       <use xlink:href="#DejaVuSans-2e" x="63.623047"/>
       <use xlink:href="#DejaVuSans-35" x="95.410156"/>
       <use xlink:href="#DejaVuSans-30" x="159.033203"/>
      </g>
     </g>
    </g>
    <g id="ytick_8">
     <g id="line2d_15">
      <g>
       <use xlink:href="#m5bd1ff7ed4" x="138.51" y="139.68" style="stroke: #000000; stroke-width: 0.8"/>
      </g>
     </g>
     <g id="text_15">
      <!-- 0.75 -->
      <g transform="translate(109.244375 143.479219) scale(0.1 -0.1)">
       <use xlink:href="#DejaVuSans-30"/>
       <use xlink:href="#DejaVuSans-2e" x="63.623047"/>
       <use xlink:href="#DejaVuSans-37" x="95.410156"/>
       <use xlink:href="#DejaVuSans-35" x="159.033203"/>
      </g>
     </g>
    </g>
    <g id="ytick_9">
     <g id="line2d_16">
      <g>
       <use xlink:href="#m5bd1ff7ed4" x="138.51" y="89.28" style="stroke: #000000; stroke-width: 0.8"/>
      </g>
     </g>
     <g id="text_16">
      <!-- 1.00 -->
      <g transform="translate(109.244375 93.079219) scale(0.1 -0.1)">
       <use xlink:href="#DejaVuSans-31"/>
       <use xlink:href="#DejaVuSans-2e" x="63.623047"/>
       <use xlink:href="#DejaVuSans-30" x="95.410156"/>
       <use xlink:href="#DejaVuSans-30" x="159.033203"/>
      </g>
     </g>
    </g>
   </g>
   <g id="line2d_17">
    <path d="M 177.544636 289.76 
L 281.926951 289.352727 
L 349.340529 288.88396 
L 395.007792 288.36 
L 427.627265 287.778462 
L 451.548212 287.146667 
L 468.945264 286.497391 
L 484.167685 285.710769 
L 495.040843 284.950588 
L 503.739369 284.16 
L 512.437895 283.126154 
L 518.96179 282.114783 
L 523.311053 281.28 
L 527.660316 280.269474 
L 532.009579 279.021176 
L 536.358842 277.44 
L 538.533474 276.48 
L 540.708106 275.372308 
L 542.882737 274.08 
L 545.057369 272.552727 
L 547.232 270.72 
L 549.406632 268.48 
L 551.581263 265.68 
L 553.755895 262.08 
L 555.930526 257.28 
L 558.105158 250.56 
L 560.27979 240.48 
L 562.454421 223.68 
L 564.629053 190.08 
L 566.803684 89.28 
M 571.152947 492.48 
L 573.327579 391.68 
L 575.50221 358.08 
L 577.676842 341.28 
L 579.851474 331.2 
L 582.026105 324.48 
L 584.200737 319.68 
L 586.375368 316.08 
L 588.55 313.28 
L 590.724631 311.04 
L 592.899263 309.207273 
L 595.073894 307.68 
L 597.248526 306.387692 
L 599.423158 305.28 
L 603.772421 303.48 
L 608.121684 302.08 
L 612.470947 300.96 
L 616.82021 300.043636 
L 623.344105 298.944 
L 629.867999 298.08 
L 638.566525 297.18 
L 649.439683 296.328649 
L 662.487473 295.568372 
L 677.709893 294.912 
L 697.281577 294.296949 
L 723.377156 293.719437 
L 758.171261 293.197241 
L 803.838523 292.746667 
L 869.07747 292.34087 
L 958.237364 292.006257 
L 958.237364 292.006257 
" clip-path="url(#pc9f10ab1e8)" style="fill: none; stroke: #1f77b4; stroke-width: 1.5; stroke-linecap: square"/>
   </g>
   <g id="line2d_18">
    <path d="M 177.544636 292 
L 281.926951 292.407273 
L 349.340529 292.87604 
L 395.007792 293.4 
L 427.627265 293.981538 
L 451.548212 294.613333 
L 468.945264 295.262609 
L 484.167685 296.049231 
L 495.040843 296.809412 
L 503.739369 297.6 
L 512.437895 298.633846 
L 518.96179 299.645217 
L 523.311053 300.48 
L 527.660316 301.490526 
L 532.009579 302.738824 
L 536.358842 304.32 
L 538.533474 305.28 
L 540.708106 306.387692 
L 542.882737 307.68 
L 545.057369 309.207273 
L 547.232 311.04 
L 549.406632 313.28 
L 551.581263 316.08 
L 553.755895 319.68 
L 555.930526 324.48 
L 558.105158 331.2 
L 560.27979 341.28 
L 562.454421 358.08 
L 564.629053 391.68 
L 566.803684 492.48 
M 571.152947 89.28 
L 573.327579 190.08 
L 575.50221 223.68 
L 577.676842 240.48 
L 579.851474 250.56 
L 582.026105 257.28 
L 584.200737 262.08 
L 586.375368 265.68 
L 588.55 268.48 
L 590.724631 270.72 
L 592.899263 272.552727 
L 595.073894 274.08 
L 597.248526 275.372308 
L 599.423158 276.48 
L 603.772421 278.28 
L 608.121684 279.68 
L 612.470947 280.8 
L 616.82021 281.716364 
L 623.344105 282.816 
L 629.867999 283.68 
L 638.566525 284.58 
L 649.439683 285.431351 
L 662.487473 286.191628 
L 677.709893 286.848 
L 697.281577 287.463051 
L 723.377156 288.040563 
L 758.171261 288.562759 
L 803.838523 289.013333 
L 869.07747 289.41913 
L 958.237364 289.753743 
L 958.237364 289.753743 
" clip-path="url(#pc9f10ab1e8)" style="fill: none; stroke: #ff7f0e; stroke-width: 1.5; stroke-linecap: square"/>
   </g>
   <g id="line2d_19">
    <path d="M 177.544636 291.777291 
L 181.893899 289.886072 
L 184.068531 289.88044 
L 188.417794 291.802907 
L 190.592426 291.965004 
L 192.767057 291.125661 
L 194.941689 290.049386 
L 197.11632 289.728651 
L 199.290952 290.468915 
L 201.465583 291.598125 
L 203.640215 292.076608 
L 205.814847 291.454077 
L 207.989478 290.293063 
L 210.16411 289.660873 
L 212.338741 290.148668 
L 214.513373 291.318956 
L 216.688004 292.097627 
L 218.862636 291.759537 
L 221.037267 290.603524 
L 223.211899 289.68876 
L 225.386531 289.864569 
L 229.735794 292.019537 
L 231.910425 292.015869 
L 236.259688 289.817449 
L 238.43432 289.642122 
L 240.608951 290.61011 
L 242.783583 291.840794 
L 244.958214 292.198719 
L 247.132846 291.340865 
L 249.307478 290.04474 
L 251.482109 289.504054 
L 253.656741 290.229673 
L 255.831372 291.56743 
L 258.006004 292.287458 
L 260.180635 291.714503 
L 262.355267 290.360742 
L 264.529898 289.468455 
L 266.70453 289.870433 
L 268.879162 291.213155 
L 271.053793 292.266941 
L 273.228425 292.051701 
L 277.577688 289.547146 
L 279.752319 289.562831 
L 284.101582 292.129002 
L 286.276214 292.32238 
L 288.450846 291.182358 
L 290.625477 289.744366 
L 292.800109 289.336045 
L 294.97474 290.352015 
L 297.149372 291.87355 
L 299.324003 292.498794 
L 301.498635 291.633793 
L 303.673266 290.055897 
L 305.847898 289.215858 
L 308.02253 289.904573 
L 310.197161 291.509202 
L 312.371793 292.55764 
L 314.546424 292.068403 
L 316.721056 290.468699 
L 318.895687 289.222611 
L 321.070319 289.491824 
L 325.419582 292.481992 
L 327.594213 292.450212 
L 331.943477 289.369401 
L 334.118108 289.149939 
L 336.29274 290.53185 
L 338.467371 292.262943 
L 340.642003 292.743428 
L 342.816634 291.503453 
L 344.991266 289.660636 
L 347.165897 288.913754 
L 349.340529 289.977739 
L 351.515161 291.900833 
L 353.689792 292.914748 
L 355.864424 292.059528 
L 358.039055 290.091042 
L 360.213687 288.814466 
L 362.388318 289.430047 
L 364.56295 291.405987 
L 366.737581 292.935631 
L 368.912213 292.588047 
L 371.086845 290.645197 
L 373.261476 288.877447 
L 375.436108 288.931798 
L 379.785371 292.78435 
L 381.960002 293.044758 
L 384.134634 291.29761 
L 386.309265 289.120343 
L 388.483897 288.527924 
L 390.658528 290.109916 
L 392.83316 292.447721 
L 395.007792 293.384599 
L 397.182423 292.013331 
L 399.357055 289.551563 
L 401.531686 288.263074 
L 403.706318 289.378325 
L 405.880949 291.922357 
L 408.055581 293.563858 
L 410.230212 292.749003 
L 412.404844 290.169295 
L 414.579476 288.179541 
L 416.754107 288.651195 
L 418.928739 291.215371 
L 421.10337 293.542091 
L 423.278002 293.454221 
L 427.627265 288.315559 
L 429.801896 287.981918 
L 431.976528 290.344462 
L 434.15116 293.283529 
L 436.325791 294.07294 
L 438.500423 291.904164 
L 440.675054 288.704299 
L 442.849686 287.428912 
L 445.024317 289.337354 
L 447.198949 292.757584 
L 449.37358 294.544557 
L 451.548212 292.966146 
L 453.722844 289.37399 
L 455.897475 287.054921 
L 458.072107 288.230623 
L 460.246738 291.937895 
L 462.42137 294.804011 
L 464.596001 294.10667 
L 466.770633 290.34995 
L 468.945264 286.927815 
L 471.119896 287.067952 
L 473.294527 290.798893 
L 475.469159 294.779669 
L 477.643791 295.279303 
L 479.818422 291.659959 
L 481.993054 287.12463 
L 484.167685 285.897919 
L 486.342317 289.307687 
L 488.516948 294.386413 
L 490.69158 296.433962 
L 492.866211 293.346332 
L 495.040843 287.742851 
L 497.215475 284.771448 
L 499.390106 287.406012 
L 501.564738 293.507548 
L 503.739369 297.519573 
L 505.914001 295.4934 
L 508.088632 288.929478 
L 510.263264 283.73906 
L 512.437895 284.967239 
L 514.612527 291.947285 
L 516.787159 298.486858 
L 518.96179 298.297306 
L 521.136422 290.96111 
L 523.311053 282.848106 
L 525.485685 281.677512 
L 527.660316 289.289724 
L 529.834948 299.291057 
L 532.009579 302.281043 
L 534.184211 294.507582 
L 536.358842 282.140131 
L 538.533474 276.615254 
L 540.708106 284.364179 
L 542.882737 299.894425 
L 545.057369 309.207093 
L 547.232 301.847466 
L 549.406632 281.648546 
L 551.581263 265.948172 
L 553.755895 271.958786 
L 558.105158 329.543827 
L 560.27979 329.022846 
L 562.454421 281.396735 
L 566.803684 121.239449 
M 571.152947 121.239449 
L 573.327579 199.222819 
L 575.50221 281.396735 
L 577.676842 329.022846 
L 579.851474 329.543827 
L 584.200737 271.958786 
L 586.375368 265.948172 
L 588.55 281.648546 
L 590.724631 301.847466 
L 592.899263 309.207093 
L 595.073894 299.894425 
L 597.248526 284.364179 
L 599.423158 276.615254 
L 601.597789 282.140131 
L 603.772421 294.507582 
L 605.947052 302.281043 
L 608.121684 299.291057 
L 610.296315 289.289724 
L 612.470947 281.677512 
L 614.645578 282.848106 
L 616.82021 290.96111 
L 618.994841 298.297306 
L 621.169473 298.486858 
L 623.344105 291.947285 
L 625.518736 284.967239 
L 627.693368 283.73906 
L 629.867999 288.929478 
L 632.042631 295.4934 
L 634.217262 297.519573 
L 636.391894 293.507548 
L 638.566525 287.406012 
L 640.741157 284.771448 
L 642.915789 287.742851 
L 645.09042 293.346332 
L 647.265052 296.433962 
L 649.439683 294.386413 
L 651.614315 289.307687 
L 653.788946 285.897919 
L 655.963578 287.12463 
L 658.138209 291.659959 
L 660.312841 295.279303 
L 662.487473 294.779669 
L 664.662104 290.798893 
L 666.836736 287.067952 
L 669.011367 286.927815 
L 671.185999 290.34995 
L 673.36063 294.10667 
L 675.535262 294.804011 
L 677.709893 291.937895 
L 679.884525 288.230623 
L 682.059156 287.054921 
L 684.233788 289.37399 
L 686.40842 292.966146 
L 688.583051 294.544557 
L 690.757683 292.757584 
L 692.932314 289.337354 
L 695.106946 287.428912 
L 697.281577 288.704299 
L 699.456209 291.904164 
L 701.63084 294.07294 
L 703.805472 293.283529 
L 705.980104 290.344462 
L 708.154735 287.981918 
L 710.329367 288.315559 
L 714.67863 293.454221 
L 716.853261 293.542091 
L 719.027893 291.215371 
L 721.202524 288.651195 
L 723.377156 288.179541 
L 725.551788 290.169295 
L 727.726419 292.749003 
L 729.901051 293.563858 
L 732.075682 291.922357 
L 734.250314 289.378325 
L 736.424945 288.263074 
L 738.599577 289.551563 
L 740.774208 292.013331 
L 742.94884 293.384599 
L 745.123472 292.447721 
L 747.298103 290.109916 
L 749.472735 288.527924 
L 751.647366 289.120343 
L 753.821998 291.29761 
L 755.996629 293.044758 
L 758.171261 292.78435 
L 762.520524 288.931798 
L 764.695155 288.877447 
L 766.869787 290.645197 
L 769.044419 292.588047 
L 771.21905 292.935631 
L 773.393682 291.405987 
L 775.568313 289.430047 
L 777.742945 288.814466 
L 779.917576 290.091042 
L 782.092208 292.059528 
L 784.266839 292.914748 
L 786.441471 291.900833 
L 788.616103 289.977739 
L 790.790734 288.913754 
L 792.965366 289.660636 
L 795.139997 291.503453 
L 797.314629 292.743428 
L 799.48926 292.262943 
L 801.663892 290.53185 
L 803.838523 289.149939 
L 806.013155 289.369401 
L 810.362418 292.450212 
L 812.53705 292.481992 
L 816.886313 289.491824 
L 819.060944 289.222611 
L 821.235576 290.468699 
L 823.410207 292.068403 
L 825.584839 292.55764 
L 827.75947 291.509202 
L 829.934102 289.904573 
L 832.108734 289.215858 
L 834.283365 290.055897 
L 836.457997 291.633793 
L 838.632628 292.498794 
L 840.80726 291.87355 
L 842.981891 290.352015 
L 845.156523 289.336045 
L 847.331154 289.744366 
L 849.505786 291.182358 
L 851.680418 292.32238 
L 853.855049 292.129002 
L 858.204312 289.562831 
L 860.378944 289.547146 
L 864.728207 292.051701 
L 866.902838 292.266941 
L 869.07747 291.213155 
L 871.252102 289.870433 
L 873.426733 289.468455 
L 875.601365 290.360742 
L 877.775996 291.714503 
L 879.950628 292.287458 
L 882.125259 291.56743 
L 884.299891 290.229673 
L 886.474522 289.504054 
L 888.649154 290.04474 
L 890.823786 291.340865 
L 892.998417 292.198719 
L 895.173049 291.840794 
L 897.34768 290.61011 
L 899.522312 289.642122 
L 901.696943 289.817449 
L 906.046206 292.015869 
L 908.220838 292.019537 
L 912.570101 289.864569 
L 914.744733 289.68876 
L 916.919364 290.603524 
L 919.093996 291.759537 
L 921.268627 292.097627 
L 923.443259 291.318956 
L 925.61789 290.148668 
L 927.792522 289.660873 
L 929.967153 290.293063 
L 932.141785 291.454077 
L 934.316417 292.076608 
L 936.491048 291.598125 
L 938.66568 290.468915 
L 940.840311 289.728651 
L 943.014943 290.049386 
L 945.189574 291.125661 
L 947.364206 291.965004 
L 949.538837 291.802907 
L 953.888101 289.88044 
L 956.062732 289.886072 
L 958.237364 290.800349 
L 958.237364 290.800349 
" clip-path="url(#pc9f10ab1e8)" style="fill: none; stroke: #2ca02c; stroke-width: 1.5; stroke-linecap: square"/>
   </g>
   <g id="patch_3">
    <path d="M 138.51 512.64 
L 138.51 69.12 
" style="fill: none; stroke: #000000; stroke-width: 0.8; stroke-linejoin: miter; stroke-linecap: square"/>
   </g>
   <g id="patch_4">
    <path d="M 997.272 512.64 
L 997.272 69.12 
" style="fill: none; stroke: #000000; stroke-width: 0.8; stroke-linejoin: miter; stroke-linecap: square"/>
   </g>
   <g id="patch_5">
    <path d="M 138.51 512.64 
L 997.272 512.64 
" style="fill: none; stroke: #000000; stroke-width: 0.8; stroke-linejoin: miter; stroke-linecap: square"/>
   </g>
   <g id="patch_6">
    <path d="M 138.51 69.12 
L 997.272 69.12 
" style="fill: none; stroke: #000000; stroke-width: 0.8; stroke-linejoin: miter; stroke-linecap: square"/>
   </g>
   <g id="legend_1">
    <g id="patch_7">
     <path d="M 920.937625 121.154375 
L 990.272 121.154375 
Q 992.272 121.154375 992.272 119.154375 
L 992.272 76.12 
Q 992.272 74.12 990.272 74.12 
L 920.937625 74.12 
Q 918.937625 74.12 918.937625 76.12 
L 918.937625 119.154375 
Q 918.937625 121.154375 920.937625 121.154375 
z
" style="fill: #ffffff; opacity: 0.8; stroke: #cccccc; stroke-linejoin: miter"/>
    </g>
    <g id="line2d_20">
     <path d="M 922.937625 82.218438 
L 932.937625 82.218438 
L 942.937625 82.218438 
" style="fill: none; stroke: #1f77b4; stroke-width: 1.5; stroke-linecap: square"/>
    </g>
    <g id="text_17">
     <!-- -1/x -->
     <g transform="translate(950.937625 85.718438) scale(0.1 -0.1)">
      <defs>
       <path id="DejaVuSans-2d" d="M 313 2009 
L 1997 2009 
L 1997 1497 
L 313 1497 
L 313 2009 
z
" transform="scale(0.015625)"/>
       <path id="DejaVuSans-2f" d="M 1625 4666 
L 2156 4666 
L 531 -594 
L 0 -594 
L 1625 4666 
z
" transform="scale(0.015625)"/>
       <path id="DejaVuSans-78" d="M 3513 3500 
L 2247 1797 
L 3578 0 
L 2900 0 
L 1881 1375 
L 863 0 
L 184 0 
L 1544 1831 
L 300 3500 
L 978 3500 
L 1906 2253 
L 2834 3500 
L 3513 3500 
z
" transform="scale(0.015625)"/>
      </defs>
      <use xlink:href="#DejaVuSans-2d"/>
      <use xlink:href="#DejaVuSans-31" x="36.083984"/>
      <use xlink:href="#DejaVuSans-2f" x="99.707031"/>
      <use xlink:href="#DejaVuSans-78" x="133.398438"/>
     </g>
    </g>
    <g id="line2d_21">
     <path d="M 922.937625 96.896563 
L 932.937625 96.896563 
L 942.937625 96.896563 
" style="fill: none; stroke: #ff7f0e; stroke-width: 1.5; stroke-linecap: square"/>
    </g>
    <g id="text_18">
     <!-- 1/x -->
     <g transform="translate(950.937625 100.396563) scale(0.1 -0.1)">
      <use xlink:href="#DejaVuSans-31"/>
      <use xlink:href="#DejaVuSans-2f" x="63.623047"/>
      <use xlink:href="#DejaVuSans-78" x="97.314453"/>
     </g>
    </g>
    <g id="line2d_22">
     <path d="M 922.937625 111.574688 
L 932.937625 111.574688 
L 942.937625 111.574688 
" style="fill: none; stroke: #2ca02c; stroke-width: 1.5; stroke-linecap: square"/>
    </g>
    <g id="text_19">
     <!-- sin(x)/x -->
     <g transform="translate(950.937625 115.074688) scale(0.1 -0.1)">
      <defs>
       <path id="DejaVuSans-73" d="M 2834 3397 
L 2834 2853 
Q 2591 2978 2328 3040 
Q 2066 3103 1784 3103 
Q 1356 3103 1142 2972 
Q 928 2841 928 2578 
Q 928 2378 1081 2264 
Q 1234 2150 1697 2047 
L 1894 2003 
Q 2506 1872 2764 1633 
Q 3022 1394 3022 966 
Q 3022 478 2636 193 
Q 2250 -91 1575 -91 
Q 1294 -91 989 -36 
Q 684 19 347 128 
L 347 722 
Q 666 556 975 473 
Q 1284 391 1588 391 
Q 1994 391 2212 530 
Q 2431 669 2431 922 
Q 2431 1156 2273 1281 
Q 2116 1406 1581 1522 
L 1381 1569 
Q 847 1681 609 1914 
Q 372 2147 372 2553 
Q 372 3047 722 3315 
Q 1072 3584 1716 3584 
Q 2034 3584 2315 3537 
Q 2597 3491 2834 3397 
z
" transform="scale(0.015625)"/>
       <path id="DejaVuSans-69" d="M 603 3500 
L 1178 3500 
L 1178 0 
L 603 0 
L 603 3500 
z
M 603 4863 
L 1178 4863 
L 1178 4134 
L 603 4134 
L 603 4863 
z
" transform="scale(0.015625)"/>
       <path id="DejaVuSans-6e" d="M 3513 2113 
L 3513 0 
L 2938 0 
L 2938 2094 
Q 2938 2591 2744 2837 
Q 2550 3084 2163 3084 
Q 1697 3084 1428 2787 
Q 1159 2491 1159 1978 
L 1159 0 
L 581 0 
L 581 3500 
L 1159 3500 
L 1159 2956 
Q 1366 3272 1645 3428 
Q 1925 3584 2291 3584 
Q 2894 3584 3203 3211 
Q 3513 2838 3513 2113 
z
" transform="scale(0.015625)"/>
       <path id="DejaVuSans-28" d="M 1984 4856 
Q 1566 4138 1362 3434 
Q 1159 2731 1159 2009 
Q 1159 1288 1364 580 
Q 1569 -128 1984 -844 
L 1484 -844 
Q 1016 -109 783 600 
Q 550 1309 550 2009 
Q 550 2706 781 3412 
Q 1013 4119 1484 4856 
L 1984 4856 
z
" transform="scale(0.015625)"/>
       <path id="DejaVuSans-29" d="M 513 4856 
L 1013 4856 
Q 1481 4119 1714 3412 
Q 1947 2706 1947 2009 
Q 1947 1309 1714 600 
Q 1481 -109 1013 -844 
L 513 -844 
Q 928 -128 1133 580 
Q 1338 1288 1338 2009 
Q 1338 2731 1133 3434 
Q 928 4138 513 4856 
z
" transform="scale(0.015625)"/>
      </defs>
      <use xlink:href="#DejaVuSans-73"/>
      <use xlink:href="#DejaVuSans-69" x="52.099609"/>
      <use xlink:href="#DejaVuSans-6e" x="79.882812"/>
      <use xlink:href="#DejaVuSans-28" x="143.261719"/>
      <use xlink:href="#DejaVuSans-78" x="182.275391"/>
      <use xlink:href="#DejaVuSans-29" x="241.455078"/>
      <use xlink:href="#DejaVuSans-2f" x="280.46875"/>
      <use xlink:href="#DejaVuSans-78" x="314.160156"/>
     </g>
    </g>
   </g>
  </g>
 </g>
 <defs>
  <clipPath id="pc9f10ab1e8">
   <rect x="138.51" y="69.12" width="858.762" height="443.52"/>
  </clipPath>
 </defs>
</svg>
